<?xml version="1.0" encoding="UTF-8"?>
<svg version="1.1" xmlns="http://www.w3.org/2000/svg" width="600" height="600">
<path d="M0 0 C3.92522016 1.11528396 6.95549963 2.85246313 10.1875 5.375 C11.84993962 8.69987924 11.91551143 11.80835577 11.1875 15.375 C7.12828983 22.69175815 -0.63560558 31.4947305 -8.875 33.875 C-10.3290625 34.1225 -10.3290625 34.1225 -11.8125 34.375 C-11.8125 37.015 -11.8125 39.655 -11.8125 42.375 C-1.88285487 39.99188517 5.68016145 33.72567588 11.58203125 25.41015625 C14.67133361 20.12247393 16.62531646 14.2606887 18.8125 8.5625 C19.48152344 6.82033203 19.48152344 6.82033203 20.1640625 5.04296875 C20.50179687 4.16253906 20.83953125 3.28210938 21.1875 2.375 C26.65816038 2.08425162 26.65816038 2.08425162 29.05078125 3.3984375 C33.07638889 7.15277778 33.07638889 7.15277778 34.1875 9.375 C34.5175 8.715 34.8475 8.055 35.1875 7.375 C35.8475 7.375 36.5075 7.375 37.1875 7.375 C37.909375 6.385 38.63125 5.395 39.375 4.375 C41.56465458 1.65725226 41.95717311 1.41687762 45.625 0.75 C49.82894922 1.48753495 52.02175193 2.51075175 55.1875 5.375 C56.0625 8.625 56.0625 8.625 56.1875 11.375 C56.909375 10.653125 57.63125 9.93125 58.375 9.1875 C59.303125 8.259375 60.23125 7.33125 61.1875 6.375 C62.4559375 5.01375 62.4559375 5.01375 63.75 3.625 C67.36089667 0.29186461 67.36089667 0.29186461 70.1875 0.375 C77.42511457 3.74423437 77.42511457 3.74423437 79.1875 8.375 C78.81958008 10.30688477 78.81958008 10.30688477 77.95703125 12.31640625 C77.49598999 13.43172729 77.49598999 13.43172729 77.02563477 14.56958008 C76.68717529 15.35099365 76.34871582 16.13240723 76 16.9375 C75.33457521 18.55566625 74.67309613 20.17546084 74.015625 21.796875 C73.69658203 22.58126953 73.37753906 23.36566406 73.04882812 24.17382812 C70.70755435 30.15708332 68.99360754 35.93092707 69.1875 42.375 C76.50448936 33.56792466 82.50057836 24.25141883 86.1875 13.375 C87.7446717 9.34126266 89.38208299 5.71478216 92.1875 2.375 C96.40662747 2.8544463 98.98413178 3.54125119 102.1875 6.375 C101.61793084 11.88323844 100.18478834 16.50181415 98.125 21.625 C95.93365076 26.83105194 95.93365076 26.83105194 95.1875 32.375 C94.5275 32.375 93.8675 32.375 93.1875 32.375 C93.1875 35.345 93.1875 38.315 93.1875 41.375 C98.15497545 35.61606096 102.50898799 30.51769869 105.1875 23.375 C105.66807861 22.90537842 106.14865723 22.43575684 106.64379883 21.9519043 C108.4450046 20.11195679 109.10873418 18.54681096 110.01171875 16.14453125 C110.31787109 15.34208984 110.62402344 14.53964844 110.93945312 13.71289062 C111.24818359 12.87951172 111.55691406 12.04613281 111.875 11.1875 C112.19533203 10.34251953 112.51566406 9.49753906 112.84570312 8.62695312 C113.63356688 6.54558172 114.41384255 4.46168461 115.1875 2.375 C116.8135287 2.43500106 118.43851549 2.5237885 120.0625 2.625 C120.96742188 2.67140625 121.87234375 2.7178125 122.8046875 2.765625 C125.1875 3.375 125.1875 3.375 126.5625 5.09375 C127.34471727 7.94884305 126.99196928 9.75612969 126.3125 12.625 C126.10882813 13.51703125 125.90515625 14.4090625 125.6953125 15.328125 C125.44394531 16.34132813 125.44394531 16.34132813 125.1875 17.375 C127.22875467 15.57107555 127.22875467 15.57107555 128 13.5625 C129.59983237 10.61544037 131.76544256 8.68440361 134.1875 6.375 C134.97125 5.42625 135.755 4.4775 136.5625 3.5 C139.1875 1.375 139.1875 1.375 142.6875 1.4375 C145.65642327 2.2327473 148.39283083 3.10469583 151.1875 4.375 C149.83470277 12.30985913 147.49171513 19.53476588 144.66601562 27.05078125 C142.55384287 32.835713 141.1875 38.16177057 141.1875 44.375 C145.07164051 39.58633362 148.69034185 35.06297134 151.1875 29.375 C152.1875 27.375 152.1875 27.375 153.9375 25.0625 C156.74354194 20.92996551 158.24652352 16.26162375 159.94140625 11.59375 C161.18749968 8.37500082 162.44555132 5.35742728 164.1875 2.375 C167.375 1.5 167.375 1.5 170.1875 1.375 C170.1875 2.035 170.1875 2.695 170.1875 3.375 C170.826875 3.601875 171.46625 3.82875 172.125 4.0625 C174.1875 5.375 174.1875 5.375 174.9152832 7.64550781 C175.22631581 10.76420252 174.74064873 12.45541323 173.60546875 15.359375 C173.07276367 16.76316406 173.07276367 16.76316406 172.52929688 18.1953125 C172.14837891 19.16210938 171.76746094 20.12890625 171.375 21.125 C168.76699233 27.84300929 166.56492108 34.29112016 165.1875 41.375 C168.40523957 38.24193779 171.16057166 35.42885668 173.1875 31.375 C173.744375 30.859375 174.30125 30.34375 174.875 29.8125 C178.16502249 26.34463846 180.61385232 22.38989038 183.1875 18.375 C185.1675 19.365 185.1675 19.365 187.1875 20.375 C185.75131393 25.31426426 183.65088681 29.39065298 181 33.75 C180.40215698 34.73746216 180.40215698 34.73746216 179.79223633 35.74487305 C171.76825954 48.73233278 171.76825954 48.73233278 165.1875 51.375 C161.12419714 51.28854675 159.5417099 50.68090855 156.4375 48 C154.1875 45.375 154.1875 45.375 152.1875 42.375 C151.65640625 43.14585937 151.1253125 43.91671875 150.578125 44.7109375 C149.87171875 45.71382813 149.1653125 46.71671875 148.4375 47.75 C147.74140625 48.74773437 147.0453125 49.74546875 146.328125 50.7734375 C144.30399402 53.2334215 143.15120227 54.35218383 140.1875 55.375 C135.63120981 55.375 132.91128524 52.9286709 129.70703125 49.96875 C126.99659777 47.12593031 126.17876302 45.05541204 126.19921875 41.12109375 C126.59279333 35.39239709 127.94390983 30.64255953 130.1875 25.375 C129.8575 25.045 129.5275 24.715 129.1875 24.375 C128.81625 25.48875 128.81625 25.48875 128.4375 26.625 C127.07599916 29.62030185 125.49471116 31.06778884 123.1875 33.375 C122.17190599 35.36712671 121.16960371 37.3661515 120.1875 39.375 C119.1975 39.87 119.1975 39.87 118.1875 40.375 C117.49656104 42.95451874 117.49656104 42.95451874 117.0625 45.9375 C116.89492188 46.94941406 116.72734375 47.96132813 116.5546875 49.00390625 C116.43351563 49.78636719 116.31234375 50.56882812 116.1875 51.375 C111.18982235 50.8990307 108.11699742 49.50073658 104.1875 46.375 C103.015625 44.23828125 103.015625 44.23828125 102.1875 42.375 C101.80078125 42.85710937 101.4140625 43.33921875 101.015625 43.8359375 C100.49484375 44.46757812 99.9740625 45.09921875 99.4375 45.75 C98.92703125 46.37648438 98.4165625 47.00296875 97.890625 47.6484375 C96.06925672 49.49487048 94.60170739 50.44828653 92.1875 51.375 C87.98970384 51.11263774 85.24593106 50.31579909 82.1875 47.375 C82.1875 46.715 82.1875 46.055 82.1875 45.375 C81.5275 45.375 80.8675 45.375 80.1875 45.375 C79.6925 43.395 79.6925 43.395 79.1875 41.375 C78.78917969 41.92929687 78.39085937 42.48359375 77.98046875 43.0546875 C77.45066406 43.77914062 76.92085938 44.50359375 76.375 45.25 C75.85292969 45.96929687 75.33085937 46.68859375 74.79296875 47.4296875 C72.5592687 50.13621457 70.8693354 51.28408861 67.375 51.75 C63.27860561 51.26807125 61.32858991 50.02747593 58.1875 47.375 C55.13358467 42.6006663 54.98895783 39.70388799 56 34.1875 C56.88784097 29.3066985 56.88784097 29.3066985 57.1875 24.375 C56.63320313 25.37402344 56.07890625 26.37304688 55.5078125 27.40234375 C54.77632662 28.70588911 54.04454018 30.00926584 53.3125 31.3125 C52.94769531 31.97185547 52.58289063 32.63121094 52.20703125 33.31054688 C49.4140625 38.26171875 49.4140625 38.26171875 47.1875 39.375 C46.50020746 41.49346285 46.50020746 41.49346285 46.0625 43.9375 C45.89492188 44.76378906 45.72734375 45.59007812 45.5546875 46.44140625 C45.37292969 47.39853516 45.37292969 47.39853516 45.1875 48.375 C40.37990183 47.92778157 37.41300613 47.07484527 34.1875 43.375 C33.08977206 35.9653364 35.48979137 28.57005087 37.1875 21.375 C36.878125 21.99375 36.56875 22.6125 36.25 23.25 C35.03998678 25.67002643 34.06160087 27.52697447 32.3203125 29.62890625 C30.1497302 32.42363034 28.62157017 35.1413023 27.0625 38.3125 C26.56492187 39.31152344 26.06734375 40.31054688 25.5546875 41.33984375 C24.21765151 44.30806364 23.15921528 47.27013832 22.1875 50.375 C20.20182292 50.08203125 18.21614583 49.7890625 16.23046875 49.49609375 C13.9849658 49.23595201 13.9849658 49.23595201 11.1875 50.375 C10.8575 49.715 10.5275 49.055 10.1875 48.375 C10.8475 48.045 11.5075 47.715 12.1875 47.375 C11.6925 46.5396875 11.6925 46.5396875 11.1875 45.6875 C10.05272475 43.06333222 10.11246414 41.20291389 10.1875 38.375 C9.61902344 38.90609375 9.05054688 39.4371875 8.46484375 39.984375 C-3.07416494 50.54093053 -3.07416494 50.54093053 -10.9375 50.75 C-19.00801117 50.33487537 -19.00801117 50.33487537 -22.21875 46.84765625 C-25.63713068 42.20435583 -26.58656361 38.09222599 -26.29296875 32.37109375 C-24.20661177 19.36104655 -17.17815673 9.20055768 -6.8125 1.375 C-3.8125 -0.625 -3.8125 -0.625 0 0 Z M32.1875 10.375 C31.8575 11.695 31.5275 13.015 31.1875 14.375 C32.1775 14.375 33.1675 14.375 34.1875 14.375 C34.5175 13.385 34.8475 12.395 35.1875 11.375 C34.1975 11.045 33.2075 10.715 32.1875 10.375 Z M2.1875 10.375 C-1.66224175 13.36924358 -4.77410954 15.8185978 -6.8125 20.375 C-6.4825 21.365 -6.1525 22.355 -5.8125 23.375 C-1.47887965 20.10070907 1.21166996 17.60513834 3.1875 12.375 C2.8575 11.715 2.5275 11.055 2.1875 10.375 Z M54.1875 12.375 C54.5175 13.365 54.8475 14.355 55.1875 15.375 C55.1875 14.385 55.1875 13.395 55.1875 12.375 C54.8575 12.375 54.5275 12.375 54.1875 12.375 Z M31.1875 15.375 C32.1875 17.375 32.1875 17.375 32.1875 17.375 Z M53.1875 15.375 C54.1875 17.375 54.1875 17.375 54.1875 17.375 Z M30.1875 17.375 C31.1875 19.375 31.1875 19.375 31.1875 19.375 Z M131.1875 20.375 C132.1875 22.375 132.1875 22.375 132.1875 22.375 Z M-7.8125 22.375 C-7.8125 25.375 -7.8125 25.375 -7.8125 25.375 Z " fill="#010101" transform="translate(254.8125,256.625)"/>
<path d="M0 0 C5.11526426 2.60844602 10.13896145 6.21272315 12.0234375 11.890625 C13.86429017 21.99726708 12.13218163 31.0000795 7.421875 40.078125 C6.431875 40.573125 6.431875 40.573125 5.421875 41.078125 C5.133125 41.8 4.844375 42.521875 4.546875 43.265625 C3.22282695 46.57574513 1.55901456 49.22860559 -0.578125 52.078125 C-3.578125 53.078125 -3.578125 53.078125 -7.015625 51.390625 C-9.93580914 49.59644407 -12.40789851 47.76920585 -14.578125 45.078125 C-14.578125 44.088125 -14.578125 43.098125 -14.578125 42.078125 C-13.711875 41.583125 -12.845625 41.088125 -11.953125 40.578125 C-7.07032646 37.61356874 -4.77144735 32.17254394 -2.578125 27.078125 C-2.578125 26.088125 -2.578125 25.098125 -2.578125 24.078125 C-1.918125 24.078125 -1.258125 24.078125 -0.578125 24.078125 C0.081875 19.458125 0.741875 14.838125 1.421875 10.078125 C-6.92324762 11.13325545 -14.94840025 12.32751971 -21.07421875 18.61328125 C-22.78407598 20.2787266 -24.43619275 21.04131727 -26.578125 22.078125 C-32.82525623 26.35065468 -37.8288359 31.22137835 -42.578125 37.078125 C-43.21492188 37.82835937 -43.85171875 38.57859375 -44.5078125 39.3515625 C-53.73104779 49.78084701 -53.73104779 49.78084701 -58.578125 62.078125 C-59.238125 62.078125 -59.898125 62.078125 -60.578125 62.078125 C-60.84625 62.91859375 -61.114375 63.7590625 -61.390625 64.625 C-62.4186855 67.61449173 -63.56372246 70.5169398 -64.78662109 73.4309082 C-69.31221289 84.27864844 -73.02684657 95.86308507 -69.453125 107.578125 C-67.89818098 111.16950202 -67.89818098 111.16950202 -65.015625 112.703125 C-58.44207756 113.42023927 -51.9309505 112.09274413 -46.578125 108.078125 C-45.918125 107.418125 -45.258125 106.758125 -44.578125 106.078125 C-43.42570312 105.62759766 -43.42570312 105.62759766 -42.25 105.16796875 C-39.36821399 103.9925034 -37.27721897 102.55141141 -34.828125 100.640625 C-34.04953125 100.04378906 -33.2709375 99.44695312 -32.46875 98.83203125 C-30.32765756 97.12743713 -30.32765756 97.12743713 -29.578125 94.078125 C-28.25302754 93.39523486 -26.9179979 92.73154893 -25.578125 92.078125 C-20.39784805 87.4359402 -14.65654521 82.23496541 -11.515625 75.953125 C-10.578125 74.078125 -10.578125 74.078125 -9.171875 72.875 C-6.23010908 69.55830313 -5.34435997 65.06231272 -3.95703125 60.9140625 C-2.578125 58.078125 -2.578125 58.078125 -0.6875 57.03125 C2.10201622 57.09323925 3.44441123 57.87066374 5.734375 59.453125 C6.45238281 59.91460937 7.17039062 60.37609375 7.91015625 60.8515625 C10.00992749 63.94424882 9.55872521 65.94078949 8.98461914 69.54882812 C7.98603481 74.03704229 6.54201002 78.31886309 4.984375 82.640625 C4.63310547 83.62933594 4.28183594 84.61804688 3.91992188 85.63671875 C-17.79475321 145.81630694 -17.79475321 145.81630694 -39.890625 158.39453125 C-45.00486644 160.51658629 -48.5390153 160.03433472 -53.6328125 158.03515625 C-57.2964997 156.23273986 -59.17573909 154.88460105 -60.578125 151.078125 C-62.27792746 143.49439095 -61.06148135 137.25790399 -57.07421875 130.546875 C-56.03782607 129.00851864 -54.97607417 127.48675682 -53.8828125 125.98828125 C-52.40277799 124.00865934 -52.40277799 124.00865934 -51.578125 121.078125 C-52.073125 121.243125 -52.568125 121.408125 -53.078125 121.578125 C-60.97136516 123.15677303 -66.44335708 121.41097507 -73.578125 118.078125 C-74.50625 117.68625 -75.434375 117.294375 -76.390625 116.890625 C-81.13934972 112.95596738 -84.11617092 106.40003361 -85.36328125 100.42578125 C-87.19987137 80.35686014 -78.00562421 57.45433226 -65.390625 41.953125 C-63.13848798 39.03725994 -61.8145184 36.86041946 -61.578125 33.078125 C-60.588125 33.078125 -59.598125 33.078125 -58.578125 33.078125 C-56.38372441 31.02601714 -56.38372441 31.02601714 -54.203125 28.390625 C-49.11385461 22.53300697 -49.11385461 22.53300697 -46.703125 20.203125 C-44.56042636 18.1807771 -44.56042636 18.1807771 -43.078125 15.953125 C-41.19399752 13.59796565 -39.20696091 12.54538225 -36.578125 11.078125 C-34.53763078 9.8076286 -32.52795035 8.48381304 -30.578125 7.078125 C-30.578125 6.418125 -30.578125 5.758125 -30.578125 5.078125 C-29.75828125 4.90990234 -29.75828125 4.90990234 -28.921875 4.73828125 C-26.13560121 3.9534808 -23.69584637 2.75059839 -21.078125 1.515625 C-14.02497349 -1.43106315 -7.35820601 -2.63111609 0 0 Z M-16.578125 94.078125 C-17.485625 95.026875 -18.393125 95.975625 -19.328125 96.953125 C-24.55551672 102.29010564 -30.60883496 106.61686613 -36.578125 111.078125 C-36.30935547 112.24601562 -36.30935547 112.24601562 -36.03515625 113.4375 C-35.578125 116.078125 -35.578125 116.078125 -36.265625 118.328125 C-37.578125 120.078125 -37.578125 120.078125 -39.39453125 120.3828125 C-42.57837313 121.39662977 -43.79208287 123.35151561 -45.828125 125.953125 C-46.53453125 126.83742188 -47.2409375 127.72171875 -47.96875 128.6328125 C-49.85300677 131.00788601 -49.85300677 131.00788601 -49.578125 134.078125 C-50.238125 134.078125 -50.898125 134.078125 -51.578125 134.078125 C-51.908125 135.068125 -52.238125 136.058125 -52.578125 137.078125 C-52.92875 137.861875 -53.279375 138.645625 -53.640625 139.453125 C-54.62749136 142.21635082 -54.81397777 144.16927415 -54.578125 147.078125 C-54.248125 147.738125 -53.918125 148.398125 -53.578125 149.078125 C-50.15865576 149.49483451 -48.863795 149.2813067 -46.0078125 147.25 C-44.74324219 146.05117188 -44.74324219 146.05117188 -43.453125 144.828125 C-42.60492188 144.03921875 -41.75671875 143.2503125 -40.8828125 142.4375 C-36.70325926 138.43543728 -36.70325926 138.43543728 -35.578125 133.078125 C-34.918125 133.078125 -34.258125 133.078125 -33.578125 133.078125 C-31.3767384 129.27385008 -31.3767384 129.27385008 -30.578125 125.078125 C-29.918125 125.078125 -29.258125 125.078125 -28.578125 125.078125 C-28.02125 123.716875 -28.02125 123.716875 -27.453125 122.328125 C-25.9639508 118.83920258 -24.28802285 115.46389289 -22.578125 112.078125 C-18.10138793 103.4269223 -18.10138793 103.4269223 -15.578125 94.078125 C-15.908125 94.078125 -16.238125 94.078125 -16.578125 94.078125 Z " fill="#010101" transform="translate(216.578125,209.921875)"/>
<path d="M0 0 C3.37462715 0.54723683 5.08235 1.0549 8 3 C7.46896789 9.80686616 4.98585548 15.6505158 2.4375 21.9375 C2.01275391 23.00291016 1.58800781 24.06832031 1.15039062 25.16601562 C0.1070757 27.78016425 -0.94320233 30.39127952 -2 33 C-1.505 33.495 -1.505 33.495 -1 34 C1.97 30.535 1.97 30.535 5 27 C8.82097239 27.53069061 11.06171403 28.49701566 14 31 C12.89818175 36.48316614 11.51832123 41.70515664 9.5859375 46.95703125 C8.81620535 49.28660838 8.81620535 49.28660838 9 53 C8.34 53 7.68 53 7 53 C7.33 53.99 7.66 54.98 8 56 C8 56.66 8 57.32 8 58 C12.14667739 51.87316768 15.70295749 45.98937362 18.17578125 38.99609375 C19 37 19 37 21 35 C21 34.01 21 33.02 21 32 C21.556875 31.7525 22.11375 31.505 22.6875 31.25 C25.13786616 30.04754243 25.13786616 30.04754243 27.3125 27.875 C30.85186935 25.40567255 32.75767322 25.40458572 37 26 C40.46163619 27.76347504 42.46007002 28.9972729 44.3125 32.4375 C44.539375 33.283125 44.76625 34.12875 45 35 C45.2475 35.7425 45.495 36.485 45.75 37.25 C46.17283469 41.9011816 45.09188612 46.81622776 43 51 C44.37562854 49.71034824 45.70766393 48.37310707 47 47 C47 46.34 47 45.68 47 45 C48 44 49 43 50 42 C50 41.34 50 40.68 50 40 C50.66 40 51.32 40 52 40 C52.67801034 37.09926819 52.67801034 37.09926819 53 34 C52.34 33.34 51.68 32.68 51 32 C50.52649995 27.2649995 50.57910555 24.89035364 52.625 20.5625 C55 18 55 18 58.0625 16.9375 C61 17 61 17 62.703125 18.1796875 C64.49933465 20.70087333 64.11875548 22.16871167 63.6875 25.1875 C63.56761719 26.08855469 63.44773437 26.98960937 63.32421875 27.91796875 C63.21722656 28.60503906 63.11023438 29.29210937 63 30 C64.093125 29.938125 65.18625 29.87625 66.3125 29.8125 C70 30 70 30 71.875 31.25 C73.19141233 33.29775252 73.69920361 34.57244603 74 37 C73.00390625 39.69140625 73.00390625 39.69140625 71.5625 42.5625 C69.49640585 46.58671205 69.49640585 46.58671205 69 51 C68.34 51 67.68 51 67 51 C67 52.98 67 54.96 67 57 C74.73098847 47.37525354 79.81579581 38.68016149 84 27 C88.7109375 26.84375 88.7109375 26.84375 91.3125 28.25 C93 30 93 30 93 34 C93.43570313 33.41089844 93.87140625 32.82179688 94.3203125 32.21484375 C96.11085858 29.95534512 97.83839924 27.91035257 100 26 C103.3125 25.875 103.3125 25.875 106 27 C108.1385485 29.1385485 108.42655063 30.13275314 109 33 C110.175625 31.824375 110.175625 31.824375 111.375 30.625 C112.91666667 29.08333333 114.45833333 27.54166667 116 26 C120.20826906 26.26861292 122.2048969 26.90452762 125 30 C124.56442084 31.47973345 124.12639904 32.95874785 123.6875 34.4375 C123.28337891 35.80068359 123.28337891 35.80068359 122.87109375 37.19140625 C121.84437831 40.50175781 120.67387583 43.74882009 119.453125 46.9921875 C118.92577694 49.32888495 119.25324283 50.74963718 120 53 C121.13323463 51.29711802 122.25622235 49.58741477 123.375 47.875 C124.00148438 46.92367187 124.62796875 45.97234375 125.2734375 44.9921875 C126.97880006 42.03674017 127.94310146 39.2294122 129 36 C131.25 33.4375 131.25 33.4375 134 31 C134.46664062 30.53078125 134.93328125 30.0615625 135.4140625 29.578125 C138.08838218 27.03251589 139.83638815 26.02629476 143.5 25.4375 C147.66875405 26.10747833 149.80728042 27.25277618 153 30 C154.96272099 33.64505327 156.33745982 37.84025714 155.6875 42 C155.16430557 43.52202016 154.56701504 45.01878814 153.9375 46.5 C152.76591771 49.17921926 152.76591771 49.17921926 153 53 C153.66 51.35 154.32 49.7 155 48 C155.66 48 156.32 48 157 48 C157.4021875 46.9171875 157.4021875 46.9171875 157.8125 45.8125 C159.00626144 42.98517028 160.21484551 40.49921628 162 38 C162.99 38 163.98 38 165 38 C166.25647973 41.76943919 165.22420124 43.2554284 163.53710938 46.70703125 C163.17423828 47.42246094 162.81136719 48.13789063 162.4375 48.875 C162.10169922 49.58269531 161.76589844 50.29039062 161.41992188 51.01953125 C158.98385936 55.89165629 156.52699846 58.92403946 152 62 C148.375 62.1875 148.375 62.1875 145 61 C142.5625 57.9375 142.5625 57.9375 141 55 C140.29875 55.825 139.5975 56.65 138.875 57.5 C136 60 136 60 133 60.5625 C129.38127515 59.88398909 127.6526526 58.49661422 125 56 C124.195625 56.804375 123.39125 57.60875 122.5625 58.4375 C119 62 119 62 116.75 62.375 C112.88170031 61.84750459 111.51565798 59.86505492 109 57 C108.67 56.67 108.34 56.34 108 56 C108.08963062 54.30858344 108.24577676 52.62040398 108.4375 50.9375 C108.53933594 50.01839844 108.64117187 49.09929687 108.74609375 48.15234375 C108.87177734 47.08693359 108.87177734 47.08693359 109 46 C108.01 46.99 108.01 46.99 107 48 C106.01 48.495 106.01 48.495 105 49 C105 50.65 105 52.3 105 54 C104.01 54.495 104.01 54.495 103 55 C102.27840576 56.64363134 101.60648579 58.31050386 101 60 C97.65902615 59.40339753 95.45699871 58.36924875 93 56 C93 54.68 93 53.36 93 52 C91.515 51.505 91.515 51.505 90 51 C90.99 51 91.98 51 93 51 C92.67 50.01 92.34 49.02 92 48 C87.86217076 52.27575688 86.94055703 56.31953056 86 62 C81.96776894 62 80.19119553 60.35870974 77 58 C76.67 57.34 76.34 56.68 76 56 C75.63648438 56.48210937 75.27296875 56.96421875 74.8984375 57.4609375 C71.70626951 61.47161011 69.34615223 64.33173097 64 65 C60.77827851 63.88478872 58.69503225 63.08295723 56.82421875 60.16796875 C54.91531534 55.14691948 56.3234546 49.76480429 58.1875 44.90234375 C59.39969824 42.23344138 60.65759884 39.60554616 62 37 C60.68 37 59.36 37 58 37 C57.77054687 37.82113281 57.54109375 38.64226562 57.3046875 39.48828125 C55.71871316 43.75711638 53.55059852 47.35109418 51.125 51.1875 C50.69058594 51.89841797 50.25617188 52.60933594 49.80859375 53.34179688 C47.08956554 57.68162719 44.7025044 60.55866432 40.125 63 C36.40999926 63 34.53501703 60.47868332 32 58 C31.67 57.01 31.34 56.02 31 55 C30.29875 55.825 29.5975 56.65 28.875 57.5 C26 60 26 60 22.9375 60.5 C20 60 20 60 16 57 C12.535 61.95 12.535 61.95 9 67 C5.34175235 66.71859633 2.72705515 66.51090362 -0.3125 64.375 C-2.43134512 61.39292168 -3.18257576 58.54217172 -4 55 C-3.34 55 -2.68 55 -2 55 C-1.67 51.7 -1.34 48.4 -1 45 C-6.03484269 50.03484269 -8.33948019 55.21954409 -10 62 C-13.86695903 61.46292236 -15.97060499 60.41445371 -19 58 C-17.08725943 45.12088018 -13.37418032 33.23461973 -9 21 C-8.71125 20.18208984 -8.4225 19.36417969 -8.125 18.52148438 C-7.32359633 16.26011616 -6.5095293 14.003943 -5.6875 11.75 C-5.44539795 11.07646484 -5.2032959 10.40292969 -4.95385742 9.70898438 C-3.23584527 5.11792264 -3.23584527 5.11792264 -1 4 C-0.34786708 1.97536745 -0.34786708 1.97536745 0 0 Z M34 34 C29.77818075 39.08029503 26.8793717 44.69857723 25 51 C25.33 51.66 25.66 52.32 26 53 C26.9060511 51.64092335 27.81087236 50.28101704 28.7109375 48.91796875 C29.65585703 47.51204303 30.62262307 46.12073474 31.6015625 44.73828125 C32.14554687 43.95839844 32.68953125 43.17851562 33.25 42.375 C33.77078125 41.64023437 34.2915625 40.90546875 34.828125 40.1484375 C36.31923475 37.82261272 36.31923475 37.82261272 36 34 C35.34 34 34.68 34 34 34 Z M144 34 C139.15181369 39.61699255 136.68572751 44.78390328 135 52 C140.145995 47.30806339 144.77695498 41.66913506 147 35 C146.01 34.67 145.02 34.34 144 34 Z M-4 36 C-3 38 -3 38 -3 38 Z M94 42 C93.34 43.32 92.68 44.64 92 46 C92.99 46.495 92.99 46.495 94 47 C94.33 45.35 94.66 43.7 95 42 C94.67 42 94.34 42 94 42 Z M109 42 C108.67 42.99 108.34 43.98 108 45 C108.99 45.495 108.99 45.495 110 46 C109.67 44.68 109.34 43.36 109 42 Z " fill="#020202" transform="translate(287,308)"/>
<path d="M0 0 C1.96371418 5.62610137 1.91370913 11.55935413 -0.1640625 17.109375 C-2.85463815 22.65610019 -5.76529735 27.51619719 -10 32 C-13.89075454 30.70308182 -16.52462743 29.33223231 -19 26 C-19.0625 23.375 -19.0625 23.375 -18 21 C-17.23171875 20.76796875 -16.4634375 20.5359375 -15.671875 20.296875 C-11.89491127 18.4636119 -10.83000207 15.53709072 -9.1875 11.875 C-8.87619141 11.21628906 -8.56488281 10.55757813 -8.24414062 9.87890625 C-7.48135927 8.25946276 -6.73866014 6.63058695 -6 5 C-6.91523438 5.28875 -7.83046875 5.5775 -8.7734375 5.875 C-10.55621094 6.431875 -10.55621094 6.431875 -12.375 7 C-13.55835938 7.37125 -14.74171875 7.7425 -15.9609375 8.125 C-19 9 -19 9 -21 9 C-21.33 9.66 -21.66 10.32 -22 11 C-23.4543323 11.75801563 -24.9397946 12.45675703 -26.4375 13.125 C-34.13101751 16.86689732 -42.21291304 22.06515113 -46 30 C-46.05311503 32.08143597 -46.05311503 32.08143597 -45 34 C-42.58111357 35.39077083 -42.58111357 35.39077083 -39.53125 36.3671875 C-37.83742187 36.98400391 -37.83742187 36.98400391 -36.109375 37.61328125 C-34.32273438 38.23783203 -34.32273438 38.23783203 -32.5 38.875 C-15.89127052 44.72496361 -15.89127052 44.72496361 -10 50 C-9.67 50.99 -9.34 51.98 -9 53 C-8.55720703 53.96292969 -8.55720703 53.96292969 -8.10546875 54.9453125 C-6.67595781 58.3396406 -5.69324557 60.79790606 -6.625 64.44921875 C-7.6437119 66.71510367 -8.76125282 68.84762533 -10 71 C-10.27457031 71.70511719 -10.54914063 72.41023438 -10.83203125 73.13671875 C-12.44746468 75.71384834 -14.1676932 76.01159968 -17 77 C-18.55843964 77.93080866 -20.09987495 78.89055474 -21.625 79.875 C-31.39842569 85.8590286 -41.55741359 88.91209022 -53 88 C-56.59424423 86.78052428 -58.3467281 85.71859909 -60.875 82.9375 C-62.54554014 78.57553407 -62.77131215 74.60496264 -62 70 C-58.8021954 65.25842766 -53.44028186 62.60278028 -48.62109375 59.6484375 C-46.00637814 58.07758336 -46.00637814 58.07758336 -43.83203125 56.23828125 C-43.22746094 55.82964844 -42.62289062 55.42101562 -42 55 C-39.25 55.8125 -39.25 55.8125 -37 57 C-37 58.65 -37 60.3 -37 62 C-37.825 62.04125 -38.65 62.0825 -39.5 62.125 C-43.6735831 63.16839577 -45.98922492 65.02407091 -49.265625 67.72265625 C-51 69 -51 69 -53 69 C-53.99 71.97 -54.98 74.94 -56 78 C-42.91261469 78.65436927 -30.37377947 74.81988225 -20.10546875 66.45703125 C-16.90208037 63.01361953 -16.27509684 59.58494741 -16 55 C-23.21323214 51.24911929 -30.6950723 48.71044999 -38.41601562 46.25 C-49.5617827 42.62597413 -49.5617827 42.62597413 -52.49609375 39.30859375 C-55.30221093 33.73129032 -55.69044794 29.04013855 -54 23 C-51.63679021 18.06935241 -47.82688378 14.74707023 -43.55078125 11.45703125 C-41.78714826 9.80001588 -40.95859826 8.20524821 -40 6 C-39.01 6 -38.02 6 -37 6 C-33.69757939 4.42042173 -30.47165734 2.74453074 -27.24414062 1.01953125 C-18.07611928 -3.74195293 -9.33320131 -5.99991513 0 0 Z " fill="#020202" transform="translate(270,309)"/>
<path d="M0 0 C3.82097239 0.53069061 6.06171403 1.49701566 9 4 C8.53328373 9.41390868 7.75702189 13.20517932 5 18 C-1.36 18.48 -1.36 18.48 -4 16.5 C-5.45962145 12.85094636 -5.07283607 9.68434493 -4 6 C-2.83574877 3.7747779 -1.54844867 1.99799829 0 0 Z " fill="#020202" transform="translate(355,241)"/>
<path d="M0 0 C3.40312738 1.05875074 6.01353231 2.00902154 9 4 C8.53411505 9.70709064 7.06242216 13.15939723 4 18 C-2.75 17.25 -2.75 17.25 -5 15 C-5.36293003 8.95116621 -3.70138266 4.65657818 0 0 Z " fill="#020202" transform="translate(428,241)"/>
<path d="M0 0 C1.9375 0.375 1.9375 0.375 4 1 C4.33 1.66 4.66 2.32 5 3 C4.67 3.99 4.34 4.98 4 6 C2.68 5.34 1.36 4.68 0 4 C0 2.68 0 1.36 0 0 Z " fill="#080808" transform="translate(282,347)"/>
<path d="M0 0 C0.99 0.33 1.98 0.66 3 1 C2.01 1 1.02 1 0 1 C0 0.67 0 0.34 0 0 Z " fill="#090909" transform="translate(215,369)"/>
<path d="M0 0 C0.33 0.66 0.66 1.32 1 2 C0.34 1.67 -0.32 1.34 -1 1 C-0.67 0.67 -0.34 0.34 0 0 Z " fill="#050505" transform="translate(412,364)"/>
<path d="M0 0 C0.66 0.66 1.32 1.32 2 2 C1.34 2 0.68 2 0 2 C0 1.34 0 0.68 0 0 Z " fill="#080808" transform="translate(342,323)"/>
<path d="" fill="#050505" transform="translate(0,0)"/>
<path d="M0 0 C3 1 3 1 3 1 Z " fill="#070707" transform="translate(311,264)"/>
<path d="M0 0 C0.66 0 1.32 0 2 0 C1.67 0.66 1.34 1.32 1 2 C0.67 1.34 0.34 0.68 0 0 Z " fill="#0C0C0C" transform="translate(328,256)"/>
<path d="M0 0 C2 1 2 1 2 1 Z " fill="#070707" transform="translate(237,381)"/>
<path d="M0 0 C2 1 2 1 2 1 Z " fill="#0D0D0D" transform="translate(222,380)"/>
<path d="M0 0 C2 1 2 1 2 1 Z " fill="#030303" transform="translate(298,372)"/>
<path d="" fill="#0A0909" transform="translate(0,0)"/>
<path d="M0 0 C2 1 2 1 2 1 Z " fill="#070707" transform="translate(361,366)"/>
<path d="" fill="#171817" transform="translate(0,0)"/>
<path d="" fill="#070707" transform="translate(0,0)"/>
<path d="" fill="#0D0D0C" transform="translate(0,0)"/>
<path d="" fill="#0E0E0E" transform="translate(0,0)"/>
<path d="M0 0 C2 1 2 1 2 1 Z " fill="#050505" transform="translate(188,359)"/>
<path d="" fill="#030303" transform="translate(0,0)"/>
<path d="" fill="#050505" transform="translate(0,0)"/>
<path d="M0 0 C2 1 2 1 2 1 Z " fill="#040404" transform="translate(195,350)"/>
<path d="" fill="#121212" transform="translate(0,0)"/>
<path d="M0 0 C2 1 2 1 2 1 Z " fill="#0D0D0C" transform="translate(207,343)"/>
<path d="M0 0 C2 1 2 1 2 1 Z " fill="#050505" transform="translate(224,341)"/>
<path d="" fill="#0D0D0C" transform="translate(0,0)"/>
<path d="" fill="#0D0D0D" transform="translate(0,0)"/>
<path d="M0 0 C2 1 2 1 2 1 Z " fill="#131313" transform="translate(353,336)"/>
<path d="" fill="#0B0B0B" transform="translate(0,0)"/>
<path d="M0 0 C2 1 2 1 2 1 Z " fill="#060505" transform="translate(181,327)"/>
<path d="" fill="#020202" transform="translate(0,0)"/>
<path d="M0 0 C2 1 2 1 2 1 Z " fill="#0D0D0D" transform="translate(405,310)"/>
<path d="" fill="#0E0E0E" transform="translate(0,0)"/>
<path d="M0 0 C2 1 2 1 2 1 Z " fill="#050505" transform="translate(407,302)"/>
<path d="" fill="#060606" transform="translate(0,0)"/>
<path d="M0 0 C2 1 2 1 2 1 Z " fill="#050505" transform="translate(377,294)"/>
<path d="M0 0 C2 1 2 1 2 1 Z " fill="#040404" transform="translate(253,293)"/>
<path d="" fill="#050505" transform="translate(0,0)"/>
<path d="" fill="#020202" transform="translate(0,0)"/>
<path d="M0 0 C2 1 2 1 2 1 Z " fill="#0A0A0A" transform="translate(196,289)"/>
<path d="M0 0 C2 1 2 1 2 1 Z " fill="#0A0A0A" transform="translate(129,287)"/>
<path d="" fill="#0A0A0A" transform="translate(0,0)"/>
<path d="" fill="#030303" transform="translate(0,0)"/>
<path d="" fill="#040403" transform="translate(0,0)"/>
<path d="M0 0 C2 1 2 1 2 1 Z " fill="#0E0E0E" transform="translate(384,264)"/>
<path d="" fill="#060606" transform="translate(0,0)"/>
<path d="" fill="#0B0B0B" transform="translate(0,0)"/>
<path d="M0 0 C2 1 2 1 2 1 Z " fill="#040404" transform="translate(248,256)"/>
<path d="" fill="#0A0A0A" transform="translate(0,0)"/>
<path d="M0 0 C2 1 2 1 2 1 Z " fill="#0A0A0A" transform="translate(347,243)"/>
<path d="" fill="#0E0E0D" transform="translate(0,0)"/>
<path d="" fill="#141413" transform="translate(0,0)"/>
<path d="" fill="#0E0E0E" transform="translate(0,0)"/>
<path d="" fill="#0E0E0E" transform="translate(0,0)"/>
<path d="" fill="#0E0E0E" transform="translate(0,0)"/>
<path d="" fill="#0E0E0E" transform="translate(0,0)"/>
<path d="" fill="#030302" transform="translate(0,0)"/>
<path d="" fill="#050504" transform="translate(0,0)"/>
<path d="" fill="#040402" transform="translate(0,0)"/>
<path d="" fill="#030302" transform="translate(0,0)"/>
<path d="" fill="#040404" transform="translate(0,0)"/>
<path d="" fill="#050505" transform="translate(0,0)"/>
<path d="" fill="#030303" transform="translate(0,0)"/>
<path d="" fill="#020202" transform="translate(0,0)"/>
<path d="" fill="#050404" transform="translate(0,0)"/>
<path d="" fill="#040404" transform="translate(0,0)"/>
<path d="" fill="#0C0C0C" transform="translate(0,0)"/>
<path d="" fill="#020202" transform="translate(0,0)"/>
<path d="" fill="#060605" transform="translate(0,0)"/>
<path d="" fill="#020202" transform="translate(0,0)"/>
<path d="" fill="#050505" transform="translate(0,0)"/>
<path d="" fill="#0F0F0E" transform="translate(0,0)"/>
<path d="" fill="#040303" transform="translate(0,0)"/>
<path d="" fill="#040404" transform="translate(0,0)"/>
<path d="" fill="#070706" transform="translate(0,0)"/>
<path d="" fill="#0C0C0C" transform="translate(0,0)"/>
<path d="" fill="#050505" transform="translate(0,0)"/>
<path d="" fill="#070707" transform="translate(0,0)"/>
<path d="" fill="#10100F" transform="translate(0,0)"/>
<path d="" fill="#0E0E0E" transform="translate(0,0)"/>
<path d="" fill="#0F0F0F" transform="translate(0,0)"/>
<path d="" fill="#0E0E0E" transform="translate(0,0)"/>
<path d="" fill="#070707" transform="translate(0,0)"/>
<path d="" fill="#0D0D0D" transform="translate(0,0)"/>
<path d="" fill="#10100F" transform="translate(0,0)"/>
<path d="" fill="#0F0F0F" transform="translate(0,0)"/>
<path d="" fill="#10100F" transform="translate(0,0)"/>
<path d="" fill="#060606" transform="translate(0,0)"/>
<path d="" fill="#030303" transform="translate(0,0)"/>
<path d="" fill="#0D0D0D" transform="translate(0,0)"/>
<path d="" fill="#0C0C0C" transform="translate(0,0)"/>
<path d="" fill="#0F0F0F" transform="translate(0,0)"/>
<path d="" fill="#060606" transform="translate(0,0)"/>
<path d="" fill="#050505" transform="translate(0,0)"/>
<path d="" fill="#0D0D0D" transform="translate(0,0)"/>
<path d="" fill="#0E0E0E" transform="translate(0,0)"/>
<path d="" fill="#181818" transform="translate(0,0)"/>
<path d="" fill="#020302" transform="translate(0,0)"/>
<path d="" fill="#0D0D0D" transform="translate(0,0)"/>
<path d="" fill="#060505" transform="translate(0,0)"/>
<path d="" fill="#070707" transform="translate(0,0)"/>
<path d="" fill="#050505" transform="translate(0,0)"/>
<path d="" fill="#080808" transform="translate(0,0)"/>
<path d="" fill="#030303" transform="translate(0,0)"/>
<path d="" fill="#070706" transform="translate(0,0)"/>
<path d="" fill="#040404" transform="translate(0,0)"/>
<path d="" fill="#0C0C0B" transform="translate(0,0)"/>
<path d="" fill="#0E0D0D" transform="translate(0,0)"/>
<path d="" fill="#0C0C0C" transform="translate(0,0)"/>
<path d="" fill="#060606" transform="translate(0,0)"/>
<path d="" fill="#050505" transform="translate(0,0)"/>
<path d="" fill="#030303" transform="translate(0,0)"/>
<path d="" fill="#040404" transform="translate(0,0)"/>
<path d="" fill="#080808" transform="translate(0,0)"/>
<path d="" fill="#040404" transform="translate(0,0)"/>
<path d="" fill="#060606" transform="translate(0,0)"/>
<path d="" fill="#040403" transform="translate(0,0)"/>
<path d="" fill="#030303" transform="translate(0,0)"/>
<path d="" fill="#050505" transform="translate(0,0)"/>
<path d="" fill="#060606" transform="translate(0,0)"/>
<path d="" fill="#060606" transform="translate(0,0)"/>
<path d="" fill="#0D0D0D" transform="translate(0,0)"/>
<path d="" fill="#161615" transform="translate(0,0)"/>
<path d="" fill="#10100F" transform="translate(0,0)"/>
<path d="" fill="#040303" transform="translate(0,0)"/>
<path d="" fill="#060605" transform="translate(0,0)"/>
<path d="" fill="#101010" transform="translate(0,0)"/>
<path d="" fill="#040404" transform="translate(0,0)"/>
<path d="" fill="#020201" transform="translate(0,0)"/>
<path d="" fill="#040404" transform="translate(0,0)"/>
<path d="" fill="#0D0D0C" transform="translate(0,0)"/>
<path d="" fill="#010101" transform="translate(0,0)"/>
<path d="" fill="#0D0D0D" transform="translate(0,0)"/>
<path d="" fill="#0F0F0F" transform="translate(0,0)"/>
<path d="" fill="#0D0D0D" transform="translate(0,0)"/>
<path d="" fill="#0D0D0D" transform="translate(0,0)"/>
<path d="" fill="#080807" transform="translate(0,0)"/>
<path d="" fill="#030303" transform="translate(0,0)"/>
<path d="" fill="#040404" transform="translate(0,0)"/>
<path d="" fill="#111111" transform="translate(0,0)"/>
<path d="" fill="#0B0B0B" transform="translate(0,0)"/>
<path d="" fill="#0C0C0C" transform="translate(0,0)"/>
<path d="" fill="#0F0F0F" transform="translate(0,0)"/>
<path d="" fill="#050505" transform="translate(0,0)"/>
<path d="" fill="#070706" transform="translate(0,0)"/>
<path d="" fill="#030304" transform="translate(0,0)"/>
<path d="" fill="#0C0C0C" transform="translate(0,0)"/>
<path d="" fill="#030303" transform="translate(0,0)"/>
<path d="" fill="#040404" transform="translate(0,0)"/>
<path d="" fill="#030303" transform="translate(0,0)"/>
<path d="" fill="#0D0D0D" transform="translate(0,0)"/>
<path d="" fill="#080808" transform="translate(0,0)"/>
<path d="" fill="#050505" transform="translate(0,0)"/>
<path d="" fill="#030302" transform="translate(0,0)"/>
<path d="" fill="#040404" transform="translate(0,0)"/>
<path d="" fill="#0D0D0D" transform="translate(0,0)"/>
<path d="" fill="#050504" transform="translate(0,0)"/>
<path d="" fill="#050505" transform="translate(0,0)"/>
<path d="" fill="#050504" transform="translate(0,0)"/>
<path d="" fill="#121212" transform="translate(0,0)"/>
<path d="" fill="#050505" transform="translate(0,0)"/>
<path d="" fill="#040404" transform="translate(0,0)"/>
<path d="" fill="#060606" transform="translate(0,0)"/>
<path d="" fill="#0C0C0C" transform="translate(0,0)"/>
<path d="" fill="#0D0D0D" transform="translate(0,0)"/>
<path d="" fill="#131312" transform="translate(0,0)"/>
<path d="" fill="#040404" transform="translate(0,0)"/>
<path d="" fill="#0D0C0C" transform="translate(0,0)"/>
<path d="" fill="#030303" transform="translate(0,0)"/>
<path d="" fill="#060606" transform="translate(0,0)"/>
<path d="" fill="#050505" transform="translate(0,0)"/>
<path d="" fill="#050505" transform="translate(0,0)"/>
<path d="" fill="#0C0C0C" transform="translate(0,0)"/>
<path d="" fill="#050505" transform="translate(0,0)"/>
<path d="" fill="#0D0D0D" transform="translate(0,0)"/>
<path d="" fill="#040403" transform="translate(0,0)"/>
<path d="" fill="#020202" transform="translate(0,0)"/>
<path d="" fill="#060606" transform="translate(0,0)"/>
<path d="" fill="#030303" transform="translate(0,0)"/>
<path d="" fill="#040404" transform="translate(0,0)"/>
<path d="" fill="#030303" transform="translate(0,0)"/>
<path d="" fill="#040403" transform="translate(0,0)"/>
<path d="" fill="#070707" transform="translate(0,0)"/>
<path d="" fill="#070707" transform="translate(0,0)"/>
<path d="" fill="#0F0F0E" transform="translate(0,0)"/>
<path d="" fill="#050505" transform="translate(0,0)"/>
<path d="" fill="#090908" transform="translate(0,0)"/>
<path d="" fill="#080808" transform="translate(0,0)"/>
<path d="" fill="#070706" transform="translate(0,0)"/>
<path d="" fill="#070707" transform="translate(0,0)"/>
<path d="" fill="#0E0E0E" transform="translate(0,0)"/>
<path d="" fill="#0C0C0C" transform="translate(0,0)"/>
<path d="" fill="#070707" transform="translate(0,0)"/>
<path d="" fill="#030303" transform="translate(0,0)"/>
<path d="" fill="#0E0E0E" transform="translate(0,0)"/>
<path d="" fill="#040404" transform="translate(0,0)"/>
<path d="" fill="#0A0A0A" transform="translate(0,0)"/>
<path d="" fill="#040404" transform="translate(0,0)"/>
<path d="" fill="#050504" transform="translate(0,0)"/>
<path d="" fill="#0D0D0D" transform="translate(0,0)"/>
<path d="" fill="#030303" transform="translate(0,0)"/>
<path d="" fill="#0D0D0D" transform="translate(0,0)"/>
<path d="" fill="#040404" transform="translate(0,0)"/>
<path d="" fill="#161616" transform="translate(0,0)"/>
<path d="" fill="#040404" transform="translate(0,0)"/>
<path d="" fill="#0C0C0B" transform="translate(0,0)"/>
<path d="" fill="#0A0A0A" transform="translate(0,0)"/>
<path d="" fill="#070706" transform="translate(0,0)"/>
<path d="" fill="#0C0C0B" transform="translate(0,0)"/>
<path d="" fill="#050504" transform="translate(0,0)"/>
<path d="" fill="#040303" transform="translate(0,0)"/>
<path d="" fill="#161616" transform="translate(0,0)"/>
<path d="" fill="#0D0D0C" transform="translate(0,0)"/>
<path d="" fill="#050505" transform="translate(0,0)"/>
<path d="" fill="#0E0E0E" transform="translate(0,0)"/>
<path d="" fill="#040404" transform="translate(0,0)"/>
<path d="" fill="#040404" transform="translate(0,0)"/>
<path d="" fill="#0C0C0C" transform="translate(0,0)"/>
<path d="" fill="#050505" transform="translate(0,0)"/>
<path d="" fill="#10100F" transform="translate(0,0)"/>
<path d="" fill="#0D0D0D" transform="translate(0,0)"/>
<path d="" fill="#0D0D0C" transform="translate(0,0)"/>
<path d="" fill="#040404" transform="translate(0,0)"/>
<path d="" fill="#040404" transform="translate(0,0)"/>
<path d="" fill="#020202" transform="translate(0,0)"/>
<path d="" fill="#040404" transform="translate(0,0)"/>
<path d="" fill="#030303" transform="translate(0,0)"/>
<path d="" fill="#060606" transform="translate(0,0)"/>
<path d="" fill="#0F0F0F" transform="translate(0,0)"/>
<path d="" fill="#070606" transform="translate(0,0)"/>
<path d="" fill="#050504" transform="translate(0,0)"/>
<path d="" fill="#0D0D0D" transform="translate(0,0)"/>
<path d="" fill="#030303" transform="translate(0,0)"/>
<path d="" fill="#0D0D0C" transform="translate(0,0)"/>
<path d="" fill="#050505" transform="translate(0,0)"/>
<path d="" fill="#0C0C0C" transform="translate(0,0)"/>
<path d="" fill="#060606" transform="translate(0,0)"/>
<path d="" fill="#020202" transform="translate(0,0)"/>
<path d="" fill="#040404" transform="translate(0,0)"/>
<path d="" fill="#050505" transform="translate(0,0)"/>
<path d="" fill="#050505" transform="translate(0,0)"/>
<path d="" fill="#141414" transform="translate(0,0)"/>
<path d="" fill="#0F0F0F" transform="translate(0,0)"/>
<path d="" fill="#060606" transform="translate(0,0)"/>
<path d="" fill="#050504" transform="translate(0,0)"/>
<path d="" fill="#0B0B0B" transform="translate(0,0)"/>
<path d="" fill="#050505" transform="translate(0,0)"/>
<path d="" fill="#040404" transform="translate(0,0)"/>
<path d="" fill="#0B0B0B" transform="translate(0,0)"/>
<path d="" fill="#040404" transform="translate(0,0)"/>
<path d="" fill="#060606" transform="translate(0,0)"/>
<path d="" fill="#060606" transform="translate(0,0)"/>
<path d="" fill="#060606" transform="translate(0,0)"/>
<path d="" fill="#020202" transform="translate(0,0)"/>
<path d="" fill="#111011" transform="translate(0,0)"/>
<path d="" fill="#060505" transform="translate(0,0)"/>
<path d="" fill="#070706" transform="translate(0,0)"/>
<path d="" fill="#131313" transform="translate(0,0)"/>
<path d="" fill="#0D0D0D" transform="translate(0,0)"/>
<path d="" fill="#0C0C0C" transform="translate(0,0)"/>
<path d="" fill="#030303" transform="translate(0,0)"/>
<path d="" fill="#060606" transform="translate(0,0)"/>
<path d="" fill="#101010" transform="translate(0,0)"/>
<path d="" fill="#0C0C0C" transform="translate(0,0)"/>
<path d="" fill="#0C0C0B" transform="translate(0,0)"/>
<path d="" fill="#0C0C0C" transform="translate(0,0)"/>
<path d="" fill="#0B0B0B" transform="translate(0,0)"/>
<path d="" fill="#0D0D0C" transform="translate(0,0)"/>
<path d="" fill="#0C0C0C" transform="translate(0,0)"/>
<path d="" fill="#0D0D0C" transform="translate(0,0)"/>
<path d="" fill="#030303" transform="translate(0,0)"/>
<path d="" fill="#0C0C0C" transform="translate(0,0)"/>
<path d="" fill="#0D0D0C" transform="translate(0,0)"/>
<path d="" fill="#0D0D0C" transform="translate(0,0)"/>
<path d="" fill="#0D0D0C" transform="translate(0,0)"/>
<path d="" fill="#040404" transform="translate(0,0)"/>
<path d="" fill="#0E0E0E" transform="translate(0,0)"/>
<path d="" fill="#0E0E0E" transform="translate(0,0)"/>
<path d="" fill="#0C0C0C" transform="translate(0,0)"/>
<path d="" fill="#030303" transform="translate(0,0)"/>
<path d="" fill="#070606" transform="translate(0,0)"/>
<path d="" fill="#0D0D0C" transform="translate(0,0)"/>
<path d="" fill="#060606" transform="translate(0,0)"/>
<path d="" fill="#050505" transform="translate(0,0)"/>
<path d="" fill="#030303" transform="translate(0,0)"/>
<path d="" fill="#0E0E0E" transform="translate(0,0)"/>
<path d="" fill="#070607" transform="translate(0,0)"/>
<path d="" fill="#020202" transform="translate(0,0)"/>
<path d="" fill="#0D0D0C" transform="translate(0,0)"/>
<path d="" fill="#0C0C0C" transform="translate(0,0)"/>
<path d="" fill="#0C0C0C" transform="translate(0,0)"/>
<path d="" fill="#0C0C0C" transform="translate(0,0)"/>
<path d="" fill="#0B0B0B" transform="translate(0,0)"/>
<path d="" fill="#060606" transform="translate(0,0)"/>
<path d="" fill="#030303" transform="translate(0,0)"/>
<path d="" fill="#0C0C0B" transform="translate(0,0)"/>
<path d="" fill="#060505" transform="translate(0,0)"/>
<path d="" fill="#060605" transform="translate(0,0)"/>
<path d="" fill="#050504" transform="translate(0,0)"/>
<path d="" fill="#0B0B0B" transform="translate(0,0)"/>
<path d="" fill="#070707" transform="translate(0,0)"/>
<path d="" fill="#050505" transform="translate(0,0)"/>
<path d="" fill="#040404" transform="translate(0,0)"/>
<path d="" fill="#030203" transform="translate(0,0)"/>
<path d="" fill="#070707" transform="translate(0,0)"/>
<path d="" fill="#030302" transform="translate(0,0)"/>
<path d="" fill="#060605" transform="translate(0,0)"/>
<path d="" fill="#0B0B0B" transform="translate(0,0)"/>
<path d="" fill="#090909" transform="translate(0,0)"/>
<path d="" fill="#040404" transform="translate(0,0)"/>
<path d="" fill="#040404" transform="translate(0,0)"/>
<path d="" fill="#0B0B0A" transform="translate(0,0)"/>
<path d="" fill="#040404" transform="translate(0,0)"/>
<path d="" fill="#0C0C0C" transform="translate(0,0)"/>
<path d="" fill="#0C0C0C" transform="translate(0,0)"/>
<path d="" fill="#0C0C0C" transform="translate(0,0)"/>
<path d="" fill="#0C0C0C" transform="translate(0,0)"/>
<path d="" fill="#0B0B0B" transform="translate(0,0)"/>
<path d="" fill="#0C0C0C" transform="translate(0,0)"/>
<path d="" fill="#0E0E0D" transform="translate(0,0)"/>
<path d="" fill="#0C0C0C" transform="translate(0,0)"/>
<path d="" fill="#0D0D0D" transform="translate(0,0)"/>
<path d="" fill="#030303" transform="translate(0,0)"/>
<path d="" fill="#0C0C0C" transform="translate(0,0)"/>
<path d="" fill="#0C0C0C" transform="translate(0,0)"/>
<path d="" fill="#030303" transform="translate(0,0)"/>
<path d="" fill="#060606" transform="translate(0,0)"/>
<path d="" fill="#030303" transform="translate(0,0)"/>
<path d="" fill="#0C0C0C" transform="translate(0,0)"/>
<path d="" fill="#040404" transform="translate(0,0)"/>
<path d="" fill="#0C0C0C" transform="translate(0,0)"/>
<path d="" fill="#0D0D0D" transform="translate(0,0)"/>
<path d="" fill="#070707" transform="translate(0,0)"/>
<path d="" fill="#040404" transform="translate(0,0)"/>
<path d="" fill="#070707" transform="translate(0,0)"/>
<path d="" fill="#0A0A0A" transform="translate(0,0)"/>
<path d="" fill="#030303" transform="translate(0,0)"/>
<path d="" fill="#020202" transform="translate(0,0)"/>
<path d="" fill="#131313" transform="translate(0,0)"/>
<path d="" fill="#080607" transform="translate(0,0)"/>
<path d="" fill="#030303" transform="translate(0,0)"/>
<path d="" fill="#020202" transform="translate(0,0)"/>
<path d="" fill="#0C0C0C" transform="translate(0,0)"/>
<path d="" fill="#040404" transform="translate(0,0)"/>
<path d="" fill="#040404" transform="translate(0,0)"/>
<path d="" fill="#0A0A09" transform="translate(0,0)"/>
<path d="" fill="#0E0E0E" transform="translate(0,0)"/>
<path d="" fill="#0C0C0C" transform="translate(0,0)"/>
<path d="" fill="#0C0C0C" transform="translate(0,0)"/>
<path d="" fill="#040404" transform="translate(0,0)"/>
<path d="" fill="#131313" transform="translate(0,0)"/>
<path d="" fill="#040404" transform="translate(0,0)"/>
<path d="" fill="#070706" transform="translate(0,0)"/>
<path d="" fill="#030303" transform="translate(0,0)"/>
<path d="" fill="#020202" transform="translate(0,0)"/>
<path d="" fill="#0A0A0A" transform="translate(0,0)"/>
<path d="" fill="#030303" transform="translate(0,0)"/>
<path d="" fill="#070707" transform="translate(0,0)"/>
<path d="" fill="#0B0B0A" transform="translate(0,0)"/>
<path d="" fill="#131313" transform="translate(0,0)"/>
<path d="" fill="#0E0E0E" transform="translate(0,0)"/>
<path d="" fill="#0A0A0A" transform="translate(0,0)"/>
<path d="" fill="#151514" transform="translate(0,0)"/>
<path d="" fill="#010101" transform="translate(0,0)"/>
<path d="" fill="#030302" transform="translate(0,0)"/>
<path d="" fill="#020202" transform="translate(0,0)"/>
<path d="" fill="#010101" transform="translate(0,0)"/>
<path d="" fill="#0A0A09" transform="translate(0,0)"/>
<path d="" fill="#0D0D0D" transform="translate(0,0)"/>
<path d="" fill="#0A0A0A" transform="translate(0,0)"/>
<path d="" fill="#040403" transform="translate(0,0)"/>
<path d="" fill="#0C0C0C" transform="translate(0,0)"/>
<path d="" fill="#040404" transform="translate(0,0)"/>
<path d="" fill="#131313" transform="translate(0,0)"/>
<path d="" fill="#030303" transform="translate(0,0)"/>
<path d="" fill="#060606" transform="translate(0,0)"/>
<path d="" fill="#0C0C0C" transform="translate(0,0)"/>
<path d="" fill="#040404" transform="translate(0,0)"/>
<path d="" fill="#060606" transform="translate(0,0)"/>
<path d="" fill="#060606" transform="translate(0,0)"/>
<path d="" fill="#030303" transform="translate(0,0)"/>
<path d="" fill="#101010" transform="translate(0,0)"/>
<path d="" fill="#141413" transform="translate(0,0)"/>
<path d="" fill="#0B0B0B" transform="translate(0,0)"/>
<path d="" fill="#090909" transform="translate(0,0)"/>
<path d="" fill="#050605" transform="translate(0,0)"/>
<path d="" fill="#030303" transform="translate(0,0)"/>
<path d="" fill="#040404" transform="translate(0,0)"/>
<path d="" fill="#060606" transform="translate(0,0)"/>
<path d="" fill="#080808" transform="translate(0,0)"/>
<path d="" fill="#050505" transform="translate(0,0)"/>
<path d="" fill="#050505" transform="translate(0,0)"/>
<path d="" fill="#050505" transform="translate(0,0)"/>
<path d="" fill="#020202" transform="translate(0,0)"/>
<path d="" fill="#040404" transform="translate(0,0)"/>
<path d="" fill="#141313" transform="translate(0,0)"/>
<path d="" fill="#040403" transform="translate(0,0)"/>
<path d="" fill="#030302" transform="translate(0,0)"/>
<path d="" fill="#040404" transform="translate(0,0)"/>
<path d="" fill="#050505" transform="translate(0,0)"/>
<path d="" fill="#030303" transform="translate(0,0)"/>
<path d="" fill="#050505" transform="translate(0,0)"/>
<path d="" fill="#050505" transform="translate(0,0)"/>
<path d="" fill="#0B0B0B" transform="translate(0,0)"/>
<path d="" fill="#030303" transform="translate(0,0)"/>
<path d="" fill="#020202" transform="translate(0,0)"/>
<path d="" fill="#050505" transform="translate(0,0)"/>
<path d="" fill="#050505" transform="translate(0,0)"/>
<path d="" fill="#0E0D0D" transform="translate(0,0)"/>
<path d="" fill="#050505" transform="translate(0,0)"/>
<path d="" fill="#0B0B0B" transform="translate(0,0)"/>
<path d="" fill="#0A0A0A" transform="translate(0,0)"/>
<path d="" fill="#060606" transform="translate(0,0)"/>
<path d="" fill="#030303" transform="translate(0,0)"/>
<path d="" fill="#0A0909" transform="translate(0,0)"/>
<path d="" fill="#040404" transform="translate(0,0)"/>
<path d="" fill="#060606" transform="translate(0,0)"/>
<path d="" fill="#060606" transform="translate(0,0)"/>
<path d="" fill="#020202" transform="translate(0,0)"/>
<path d="" fill="#050505" transform="translate(0,0)"/>
<path d="" fill="#0A0909" transform="translate(0,0)"/>
<path d="" fill="#060606" transform="translate(0,0)"/>
<path d="" fill="#050505" transform="translate(0,0)"/>
<path d="" fill="#0C0C0C" transform="translate(0,0)"/>
<path d="" fill="#0A0A09" transform="translate(0,0)"/>
<path d="" fill="#111111" transform="translate(0,0)"/>
<path d="" fill="#050505" transform="translate(0,0)"/>
<path d="" fill="#040403" transform="translate(0,0)"/>
<path d="" fill="#040404" transform="translate(0,0)"/>
<path d="" fill="#0D0D0D" transform="translate(0,0)"/>
<path d="" fill="#040404" transform="translate(0,0)"/>
<path d="" fill="#030303" transform="translate(0,0)"/>
<path d="" fill="#060606" transform="translate(0,0)"/>
<path d="" fill="#050505" transform="translate(0,0)"/>
<path d="" fill="#101010" transform="translate(0,0)"/>
<path d="" fill="#050505" transform="translate(0,0)"/>
<path d="" fill="#050505" transform="translate(0,0)"/>
<path d="" fill="#0A0A0A" transform="translate(0,0)"/>
<path d="" fill="#0D0D0D" transform="translate(0,0)"/>
<path d="" fill="#0D0D0D" transform="translate(0,0)"/>
<path d="" fill="#050504" transform="translate(0,0)"/>
<path d="" fill="#060606" transform="translate(0,0)"/>
<path d="" fill="#0C0C0C" transform="translate(0,0)"/>
<path d="" fill="#060606" transform="translate(0,0)"/>
<path d="" fill="#0B0B0B" transform="translate(0,0)"/>
<path d="" fill="#040404" transform="translate(0,0)"/>
<path d="" fill="#030303" transform="translate(0,0)"/>
<path d="" fill="#030303" transform="translate(0,0)"/>
<path d="" fill="#121212" transform="translate(0,0)"/>
<path d="" fill="#111111" transform="translate(0,0)"/>
<path d="" fill="#0F0F0F" transform="translate(0,0)"/>
<path d="" fill="#040404" transform="translate(0,0)"/>
<path d="" fill="#050505" transform="translate(0,0)"/>
<path d="" fill="#020202" transform="translate(0,0)"/>
<path d="" fill="#0B0B0A" transform="translate(0,0)"/>
<path d="" fill="#0C0C0C" transform="translate(0,0)"/>
<path d="" fill="#0D0D0D" transform="translate(0,0)"/>
<path d="" fill="#0C0C0C" transform="translate(0,0)"/>
<path d="" fill="#050505" transform="translate(0,0)"/>
<path d="" fill="#040404" transform="translate(0,0)"/>
<path d="" fill="#040404" transform="translate(0,0)"/>
<path d="" fill="#0C0C0C" transform="translate(0,0)"/>
<path d="" fill="#0E0E0E" transform="translate(0,0)"/>
<path d="" fill="#101010" transform="translate(0,0)"/>
<path d="" fill="#0A0A0A" transform="translate(0,0)"/>
<path d="" fill="#0F0F0F" transform="translate(0,0)"/>
<path d="" fill="#0C0C0C" transform="translate(0,0)"/>
<path d="" fill="#0C0C0C" transform="translate(0,0)"/>
<path d="" fill="#040404" transform="translate(0,0)"/>
<path d="" fill="#0C0C0C" transform="translate(0,0)"/>
<path d="" fill="#050505" transform="translate(0,0)"/>
<path d="" fill="#040403" transform="translate(0,0)"/>
<path d="" fill="#030303" transform="translate(0,0)"/>
<path d="" fill="#0B0B0A" transform="translate(0,0)"/>
<path d="" fill="#0B0B0B" transform="translate(0,0)"/>
<path d="" fill="#020202" transform="translate(0,0)"/>
<path d="" fill="#090808" transform="translate(0,0)"/>
<path d="" fill="#050505" transform="translate(0,0)"/>
<path d="" fill="#090909" transform="translate(0,0)"/>
<path d="" fill="#050505" transform="translate(0,0)"/>
<path d="" fill="#010101" transform="translate(0,0)"/>
<path d="" fill="#090909" transform="translate(0,0)"/>
<path d="" fill="#010101" transform="translate(0,0)"/>
<path d="" fill="#030303" transform="translate(0,0)"/>
<path d="" fill="#050404" transform="translate(0,0)"/>
<path d="" fill="#020201" transform="translate(0,0)"/>
<path d="" fill="#040404" transform="translate(0,0)"/>
<path d="" fill="#040404" transform="translate(0,0)"/>
<path d="" fill="#050505" transform="translate(0,0)"/>
<path d="" fill="#030303" transform="translate(0,0)"/>
<path d="" fill="#020202" transform="translate(0,0)"/>
<path d="" fill="#050505" transform="translate(0,0)"/>
<path d="" fill="#0C0C0C" transform="translate(0,0)"/>
<path d="" fill="#040404" transform="translate(0,0)"/>
<path d="" fill="#030303" transform="translate(0,0)"/>
<path d="" fill="#030303" transform="translate(0,0)"/>
<path d="" fill="#020201" transform="translate(0,0)"/>
<path d="" fill="#0C0C0C" transform="translate(0,0)"/>
<path d="" fill="#040404" transform="translate(0,0)"/>
<path d="" fill="#0B0B0B" transform="translate(0,0)"/>
<path d="" fill="#0B0B0B" transform="translate(0,0)"/>
<path d="" fill="#030303" transform="translate(0,0)"/>
<path d="" fill="#040404" transform="translate(0,0)"/>
<path d="" fill="#020202" transform="translate(0,0)"/>
<path d="" fill="#060606" transform="translate(0,0)"/>
<path d="" fill="#090909" transform="translate(0,0)"/>
<path d="" fill="#0E0E0E" transform="translate(0,0)"/>
<path d="" fill="#040404" transform="translate(0,0)"/>
<path d="" fill="#050505" transform="translate(0,0)"/>
<path d="" fill="#040404" transform="translate(0,0)"/>
<path d="" fill="#131312" transform="translate(0,0)"/>
<path d="" fill="#040404" transform="translate(0,0)"/>
<path d="" fill="#030303" transform="translate(0,0)"/>
<path d="" fill="#050505" transform="translate(0,0)"/>
<path d="" fill="#0B0B0B" transform="translate(0,0)"/>
<path d="" fill="#0B0B0B" transform="translate(0,0)"/>
<path d="" fill="#0C0C0C" transform="translate(0,0)"/>
<path d="" fill="#060606" transform="translate(0,0)"/>
<path d="" fill="#050505" transform="translate(0,0)"/>
<path d="" fill="#0B0B0B" transform="translate(0,0)"/>
<path d="" fill="#0F0F0F" transform="translate(0,0)"/>
<path d="" fill="#090909" transform="translate(0,0)"/>
<path d="" fill="#0A0A0A" transform="translate(0,0)"/>
<path d="" fill="#030303" transform="translate(0,0)"/>
<path d="" fill="#0B0B0B" transform="translate(0,0)"/>
<path d="" fill="#0E0E0E" transform="translate(0,0)"/>
<path d="" fill="#030303" transform="translate(0,0)"/>
<path d="" fill="#030303" transform="translate(0,0)"/>
<path d="" fill="#080808" transform="translate(0,0)"/>
<path d="" fill="#0B0B0B" transform="translate(0,0)"/>
<path d="" fill="#0A0A0A" transform="translate(0,0)"/>
<path d="" fill="#040404" transform="translate(0,0)"/>
<path d="" fill="#0A0A0A" transform="translate(0,0)"/>
<path d="" fill="#080808" transform="translate(0,0)"/>
<path d="" fill="#050505" transform="translate(0,0)"/>
<path d="" fill="#020202" transform="translate(0,0)"/>
<path d="" fill="#0A0A09" transform="translate(0,0)"/>
<path d="" fill="#030303" transform="translate(0,0)"/>
<path d="" fill="#050504" transform="translate(0,0)"/>
<path d="" fill="#040404" transform="translate(0,0)"/>
<path d="" fill="#050505" transform="translate(0,0)"/>
<path d="" fill="#0A0A0A" transform="translate(0,0)"/>
<path d="" fill="#030303" transform="translate(0,0)"/>
<path d="" fill="#0A0A0A" transform="translate(0,0)"/>
<path d="" fill="#040403" transform="translate(0,0)"/>
<path d="" fill="#030303" transform="translate(0,0)"/>
<path d="" fill="#070707" transform="translate(0,0)"/>
<path d="" fill="#0A0A0A" transform="translate(0,0)"/>
<path d="" fill="#0C0C0C" transform="translate(0,0)"/>
<path d="" fill="#0B0B0B" transform="translate(0,0)"/>
<path d="" fill="#0A0A0A" transform="translate(0,0)"/>
<path d="" fill="#050403" transform="translate(0,0)"/>
<path d="" fill="#080808" transform="translate(0,0)"/>
<path d="" fill="#050404" transform="translate(0,0)"/>
<path d="" fill="#020202" transform="translate(0,0)"/>
<path d="" fill="#090909" transform="translate(0,0)"/>
<path d="" fill="#030303" transform="translate(0,0)"/>
<path d="" fill="#050505" transform="translate(0,0)"/>
<path d="" fill="#0D0D0D" transform="translate(0,0)"/>
<path d="" fill="#090909" transform="translate(0,0)"/>
<path d="" fill="#080808" transform="translate(0,0)"/>
<path d="" fill="#040404" transform="translate(0,0)"/>
<path d="" fill="#040404" transform="translate(0,0)"/>
<path d="" fill="#0E0E0E" transform="translate(0,0)"/>
<path d="" fill="#0E0E0E" transform="translate(0,0)"/>
<path d="" fill="#040404" transform="translate(0,0)"/>
<path d="" fill="#050505" transform="translate(0,0)"/>
<path d="" fill="#0A0A0A" transform="translate(0,0)"/>
<path d="" fill="#020202" transform="translate(0,0)"/>
<path d="" fill="#040404" transform="translate(0,0)"/>
<path d="" fill="#040403" transform="translate(0,0)"/>
<path d="" fill="#090908" transform="translate(0,0)"/>
<path d="" fill="#030303" transform="translate(0,0)"/>
</svg>
