<?xml version="1.0" encoding="UTF-8"?>
<svg version="1.1" xmlns="http://www.w3.org/2000/svg" width="600" height="600">
<path d="M0 0 C4.48355684 1.34770962 8.56336778 3.5857635 11.296875 7.4453125 C12.51804041 11.24679353 10.93749598 14.12602285 9.515625 17.70703125 C5.44713752 25.40698197 -1.05705502 30.38787966 -9.01171875 33.59765625 C-9.67171875 33.59765625 -10.33171875 33.59765625 -11.01171875 33.59765625 C-12.36611543 36.3064496 -12.07673326 38.60698893 -12.01171875 41.59765625 C-6.52659457 41.15884632 -3.37996168 39.92131935 0.98828125 36.59765625 C2.17744141 35.71787109 2.17744141 35.71787109 3.390625 34.8203125 C12.01819533 27.43822601 16.33973696 17.22783816 19.89453125 6.73828125 C20.98828125 3.59765625 20.98828125 3.59765625 21.98828125 2.59765625 C24.68140647 2.13597764 26.35230184 2.17068416 28.65234375 3.71484375 C30.13873532 4.96172198 31.56775119 6.27623294 32.98828125 7.59765625 C32.32828125 10.89765625 31.66828125 14.19765625 30.98828125 17.59765625 C31.60316406 16.69402344 32.21804688 15.79039062 32.8515625 14.859375 C33.66780129 13.66785401 34.48421683 12.4764541 35.30078125 11.28515625 C35.70490234 10.69025391 36.10902344 10.09535156 36.52539062 9.48242188 C40.65976389 3.46573232 40.65976389 3.46573232 42.98828125 1.59765625 C46.86694574 0.99430844 48.75863734 1.48500075 52.30078125 3.22265625 C54.98828125 5.59765625 54.98828125 5.59765625 55.86328125 8.84765625 C55.90453125 9.75515625 55.94578125 10.66265625 55.98828125 11.59765625 C57.04015625 10.51484375 57.04015625 10.51484375 58.11328125 9.41015625 C59.07062047 8.47164112 60.02901569 7.53420236 60.98828125 6.59765625 C61.4575 6.10910156 61.92671875 5.62054688 62.41015625 5.1171875 C65.2135402 2.42684323 66.62634233 1.60400606 70.55078125 1.53515625 C74.17699903 2.6559872 76.2408207 4.01670846 78.98828125 6.59765625 C78.19459944 11.80179772 76.10176824 16.43473286 74.07226562 21.24609375 C72.85502819 24.19339989 71.98828125 26.37494004 71.98828125 29.59765625 C71.32828125 29.59765625 70.66828125 29.59765625 69.98828125 29.59765625 C70.02953125 30.62890625 70.07078125 31.66015625 70.11328125 32.72265625 C69.99252976 36.46595252 69.33956107 39.13500172 67.98828125 42.59765625 C71.23678102 40.87539129 71.23678102 40.87539129 71.98828125 37.59765625 C72.58769531 37.00855469 73.18710937 36.41945313 73.8046875 35.8125 C80.68454134 28.83418671 84.73569809 18.45170568 87.8828125 9.33984375 C89.23649673 5.98194152 90.63262125 3.39235349 93.80078125 1.53515625 C96.78535085 1.62042967 98.56193298 3.05380667 100.9140625 4.78515625 C102.32224503 7.16114422 102.02926504 8.88231441 101.52856445 11.53759766 C100.47205097 15.56600287 98.94526628 19.4127261 97.42578125 23.28515625 C96.77256144 24.95335948 96.12518649 26.62386611 95.484375 28.296875 C95.05402954 29.39261841 95.05402954 29.39261841 94.61499023 30.51049805 C93.7965584 32.87295672 93.7965584 32.87295672 93.98828125 36.59765625 C93.32828125 36.59765625 92.66828125 36.59765625 91.98828125 36.59765625 C91.98828125 38.24765625 91.98828125 39.89765625 91.98828125 41.59765625 C92.75140625 40.83453125 93.51453125 40.07140625 94.30078125 39.28515625 C95.75926339 37.82667411 97.22681757 36.37615824 98.73828125 34.97265625 C100.24487211 33.50149007 100.24487211 33.50149007 100.98828125 30.59765625 C101.64828125 30.59765625 102.30828125 30.59765625 102.98828125 30.59765625 C103.27058594 29.86417969 103.55289063 29.13070313 103.84375 28.375 C104.87513249 25.87222542 106.03061576 23.5474054 107.30078125 21.16015625 C110.50292334 14.86070411 112.72536034 8.28049502 114.98828125 1.59765625 C116.42924711 2.02360213 117.86596837 2.46392258 119.30078125 2.91015625 C120.10128906 3.15378906 120.90179688 3.39742188 121.7265625 3.6484375 C124.13157639 4.65779566 125.41284025 5.52795924 126.98828125 7.59765625 C126.70553455 11.83885674 125.34516991 15.59399713 123.98828125 19.59765625 C125.63919709 17.49730778 127.28409363 15.39269792 128.92578125 13.28515625 C129.62864258 12.39280273 129.62864258 12.39280273 130.34570312 11.48242188 C132.37384084 8.87064741 133.93458926 6.75873222 134.98828125 3.59765625 C137.64818615 1.55157556 139.09146822 1.60318412 142.48828125 1.78515625 C145.89478231 2.57595114 147.58815629 3.10521879 149.98828125 5.59765625 C151.44672075 9.2180765 150.59871001 11.38108233 149.1875 14.921875 C148.78724609 15.95119141 148.38699219 16.98050781 147.97460938 18.04101562 C147.33168945 19.64686523 147.33168945 19.64686523 146.67578125 21.28515625 C143.86792181 28.36339233 141.45724677 35.11860843 139.98828125 42.59765625 C139.65828125 43.58765625 139.32828125 44.57765625 138.98828125 45.59765625 C142.84883183 42.78392163 145.2918429 40.02849994 147.80078125 35.97265625 C148.40535156 35.01101563 149.00992188 34.049375 149.6328125 33.05859375 C151.14909871 30.77393867 151.14909871 30.77393867 150.98828125 28.59765625 C151.64828125 28.59765625 152.30828125 28.59765625 152.98828125 28.59765625 C153.64828125 26.28765625 154.30828125 23.97765625 154.98828125 21.59765625 C155.64828125 21.59765625 156.30828125 21.59765625 156.98828125 21.59765625 C157.10171875 20.90027344 157.21515625 20.20289063 157.33203125 19.484375 C158.06374576 16.26570223 159.19177593 13.44412946 160.48828125 10.41015625 C160.93171875 9.36472656 161.37515625 8.31929688 161.83203125 7.2421875 C162.51581903 5.67825396 163.22493941 4.12433994 163.98828125 2.59765625 C167.17578125 2.22265625 167.17578125 2.22265625 170.98828125 2.59765625 C172.95562905 4.4080749 174.36121062 6.45633014 175.98828125 8.59765625 C175.529375 9.63921875 175.07046875 10.68078125 174.59765625 11.75390625 C170.37309729 21.5506021 167.24690339 31.17432549 164.98828125 41.59765625 C168.37390866 38.341341 171.2684965 35.05009527 173.98828125 31.22265625 C174.66890625 30.27003906 175.34953125 29.31742187 176.05078125 28.3359375 C177.00984375 26.98048828 177.00984375 26.98048828 177.98828125 25.59765625 C178.98790201 24.2015513 179.98783278 22.80566818 180.98828125 21.41015625 C181.64828125 20.48203125 182.30828125 19.55390625 182.98828125 18.59765625 C184.96828125 19.58765625 184.96828125 19.58765625 186.98828125 20.59765625 C183.73990233 31.29353806 176.85892138 43.20276188 167.98828125 50.28515625 C164.98828125 51.59765625 164.98828125 51.59765625 161.36328125 51.09765625 C156.75364494 49.048929 154.74870875 46.7382975 151.98828125 42.59765625 C151.51777344 43.29632813 151.04726563 43.995 150.5625 44.71484375 C149.93988281 45.62492187 149.31726563 46.535 148.67578125 47.47265625 C148.06089844 48.37757813 147.44601562 49.2825 146.8125 50.21484375 C144.39299107 53.37523014 142.74724673 54.47860284 138.80078125 55.09765625 C134.4059509 54.52128506 131.93880469 53.48820264 128.53515625 50.69140625 C125.94779712 47.18932419 126.22911684 43.93343974 126.5078125 39.7109375 C127.09937894 35.87777936 128.0364745 32.30900027 129.33203125 28.65625 C130.14014423 26.48138733 130.14014423 26.48138733 129.98828125 23.59765625 C120.33365627 36.03117741 120.33365627 36.03117741 115.98828125 50.59765625 C114.42578125 51.34765625 114.42578125 51.34765625 111.98828125 51.59765625 C107.05577497 49.34774111 104.36499349 47.63069394 101.98828125 42.59765625 C101.54097656 43.15195312 101.09367187 43.70625 100.6328125 44.27734375 C94.38323299 51.76617889 94.38323299 51.76617889 89.98828125 52.59765625 C86.64148344 52.30235056 85.16796181 51.07456598 82.98828125 48.59765625 C82.32828125 47.93765625 81.66828125 47.27765625 80.98828125 46.59765625 C80.29079542 45.28018301 79.61868168 43.94851432 78.98828125 42.59765625 C78.33472656 43.42910156 78.33472656 43.42910156 77.66796875 44.27734375 C74.94778137 47.58631627 72.67147991 50.20725701 68.92578125 52.34765625 C64.7543571 52.70267107 63.16114059 51.21871397 59.98828125 48.59765625 C58.9209375 47.72947266 58.9209375 47.72947266 57.83203125 46.84375 C54.32084783 42.56635494 55.5414766 36.85718525 55.98828125 31.59765625 C56.46601987 29.1036987 57.10039659 26.98384629 57.98828125 24.59765625 C51.85542964 31.43814458 47.91898182 39.96837124 44.98828125 48.59765625 C40.12259617 48.14503438 37.38128762 47.17015613 33.98828125 43.59765625 C33.6484375 40.171875 33.6484375 40.171875 34.05078125 36.28515625 C34.16550781 35.01027344 34.28023438 33.73539062 34.3984375 32.421875 C34.98190002 28.63902858 35.85191295 25.2425222 36.98828125 21.59765625 C36.61316406 22.22671875 36.23804688 22.85578125 35.8515625 23.50390625 C35.08392578 24.7878125 35.08392578 24.7878125 34.30078125 26.09765625 C33.75292969 27.01675781 33.20507812 27.93585938 32.640625 28.8828125 C31.26543328 31.14228826 29.8309196 33.33598476 28.36328125 35.53515625 C25.39267768 40.21698129 23.71314492 45.35561247 21.98828125 50.59765625 C18.31127941 50.31480995 15.69167653 50.07892671 12.61328125 47.97265625 C10.50701079 44.89426097 10.27112755 42.27465809 9.98828125 38.59765625 C9.36953125 39.25765625 8.75078125 39.91765625 8.11328125 40.59765625 C5.98828125 42.59765625 5.98828125 42.59765625 3.98828125 42.59765625 C3.98828125 43.25765625 3.98828125 43.91765625 3.98828125 44.59765625 C-1.47962119 49.08831655 -6.71986029 51.47720128 -13.8203125 50.98828125 C-19.23008943 50.02397164 -21.95285482 46.96746187 -25.01171875 42.59765625 C-27.30279422 35.72442983 -26.30581458 27.39406849 -24.01171875 20.59765625 C-22.6015625 19.0703125 -22.6015625 19.0703125 -21.01171875 17.59765625 C-20.11303553 16.21695202 -19.23980262 14.81949071 -18.38671875 13.41015625 C-14.17830156 7.05586297 -8.4747229 -0.93408769 0 0 Z M1.98828125 10.59765625 C-2.82962227 14.18307283 -6.54130309 18.03000306 -9.01171875 23.59765625 C-8.68171875 24.25765625 -8.35171875 24.91765625 -8.01171875 25.59765625 C-1.17055729 20.16039572 -1.17055729 20.16039572 2.98828125 12.59765625 C2.65828125 11.93765625 2.32828125 11.27765625 1.98828125 10.59765625 Z M53.98828125 11.59765625 C53.65828125 13.57765625 53.32828125 15.55765625 52.98828125 17.59765625 C53.97828125 16.27765625 54.96828125 14.95765625 55.98828125 13.59765625 C55.32828125 12.93765625 54.66828125 12.27765625 53.98828125 11.59765625 Z M58.98828125 20.59765625 C58.98828125 23.59765625 58.98828125 23.59765625 58.98828125 23.59765625 Z " fill="#FCFCFC" transform="translate(255.01171875,256.40234375)"/>
<path d="M0 0 C3.42766879 3.24155103 5.55435074 6.18980849 5.89453125 11.015625 C5.90097656 11.92054688 5.90742188 12.82546875 5.9140625 13.7578125 C5.92824219 14.64726562 5.94242187 15.53671875 5.95703125 16.453125 C5.38195762 24.38719167 3.05622802 30.62120053 -0.8359375 37.5078125 C-1.65157443 38.98336225 -2.46545312 40.45988562 -3.27734375 41.9375 C-3.63642822 42.57671387 -3.9955127 43.21592773 -4.36547852 43.87451172 C-5.41096121 45.78821777 -5.41096121 45.78821777 -6.2734375 48.6328125 C-12.67657931 47.50945429 -16.92467966 45.58661491 -21.2734375 40.6328125 C-21.6034375 39.6428125 -21.9334375 38.6528125 -22.2734375 37.6328125 C-21.3453125 37.2409375 -20.4171875 36.8490625 -19.4609375 36.4453125 C-16.00759009 34.48164437 -15.08143678 33.06801114 -13.2734375 29.6328125 C-12.6134375 29.3028125 -11.9534375 28.9728125 -11.2734375 28.6328125 C-10.19758691 25.90845613 -10.19758691 25.90845613 -9.2734375 22.6328125 C-8.9434375 21.5603125 -8.6134375 20.4878125 -8.2734375 19.3828125 C-7.060664 14.83491189 -6.14782499 10.25590381 -5.2734375 5.6328125 C-21.02357043 6.78666839 -35.32525132 16.3868864 -45.5234375 28.1953125 C-45.97847656 28.76765625 -46.43351562 29.34 -46.90234375 29.9296875 C-48.2734375 31.6328125 -48.2734375 31.6328125 -49.80078125 33.2109375 C-58.40569733 42.20054395 -72.2734375 60.87970476 -72.2734375 73.6328125 C-72.9334375 73.6328125 -73.5934375 73.6328125 -74.2734375 73.6328125 C-76.90186217 85.50765966 -78.88612756 95.01871789 -74.2734375 106.6328125 C-65.70463157 108.77501398 -60.27484667 107.79790726 -52.5703125 103.671875 C-44.40938986 98.62447972 -36.39336589 92.7176597 -30.48046875 85.08984375 C-29.2734375 83.6328125 -29.2734375 83.6328125 -26.4609375 81.4453125 C-18.69443944 75.19123775 -13.65919799 66.41242036 -10.44140625 57.12890625 C-9.13428156 54.33541905 -7.86196802 53.24453905 -5.2734375 51.6328125 C-5.2734375 52.2928125 -5.2734375 52.9528125 -5.2734375 53.6328125 C-4.5103125 53.9009375 -3.7471875 54.1690625 -2.9609375 54.4453125 C-0.31092831 55.61624679 0.94000249 56.40616147 2.7265625 58.6328125 C2.7265625 65.35395108 0.69327135 71.22981915 -1.54492188 77.49121094 C-2.56343552 80.3552238 -3.2734375 82.56550694 -3.2734375 85.6328125 C-3.9334375 85.6328125 -4.5934375 85.6328125 -5.2734375 85.6328125 C-5.43199219 86.20386719 -5.59054688 86.77492188 -5.75390625 87.36328125 C-10.51714564 103.91619604 -17.6708551 118.95688114 -26.98510742 133.3918457 C-28.74313222 136.12216094 -30.24166385 138.53749154 -31.2734375 141.6328125 C-37.18679634 147.71924526 -44.65990789 154.44473945 -53.2734375 155.6328125 C-57.91321018 154.85685052 -61.44579818 153.21905702 -65.2734375 150.5078125 C-68.48671468 145.88872655 -68.75103113 141.71229641 -67.8984375 136.21484375 C-65.9644373 128.61180547 -61.8327868 121.1921618 -56.2734375 115.6328125 C-57.08425781 115.82359375 -57.89507812 116.014375 -58.73046875 116.2109375 C-68.42527501 118.15215598 -74.7425311 116.99945118 -83.1484375 111.8828125 C-88.70011152 106.00456942 -91.87558548 99.77830906 -92.2734375 91.6328125 C-91.93482374 82.79807174 -90.86048817 73.76431171 -87.2734375 65.6328125 C-87.01288574 65.03001465 -86.75233398 64.4272168 -86.48388672 63.80615234 C-82.6874737 55.10132878 -78.56107058 47.01726665 -73.09375 39.234375 C-71.43053264 36.85733045 -69.93449246 34.44241461 -68.4609375 31.9453125 C-66.2734375 28.6328125 -66.2734375 28.6328125 -63.2734375 27.6328125 C-62.56383981 26.32182305 -61.90076123 24.9851021 -61.2734375 23.6328125 C-59.30455397 21.25480559 -57.09014521 19.11800766 -54.8984375 16.9453125 C-54.27864014 16.3275293 -53.65884277 15.70974609 -53.02026367 15.07324219 C-46.38563509 8.57988391 -38.17058187 0.59852729 -29.2734375 -2.3671875 C-28.00212028 -2.86595588 -26.73132248 -3.36604944 -25.4609375 -3.8671875 C-15.61958769 -7.49954025 -8.27110393 -6.50115576 0 0 Z M-22.2734375 88.6328125 C-23.37470292 89.7402648 -24.45331175 90.87024185 -25.5234375 92.0078125 C-30.94019367 97.52341459 -37.08620598 102.03011588 -43.2734375 106.6328125 C-42.9434375 108.2828125 -42.6134375 109.9328125 -42.2734375 111.6328125 C-43.0984375 112.2515625 -43.9234375 112.8703125 -44.7734375 113.5078125 C-53.09574447 120.44964201 -60.29483882 129.77307979 -61.29296875 140.71484375 C-61.41260697 142.71954245 -61.41260697 142.71954245 -60.2734375 144.6328125 C-55.27684947 144.53084132 -52.94191985 143.74242167 -49.3359375 140.1953125 C-46.85121047 137.81138178 -46.85121047 137.81138178 -46.2734375 134.6328125 C-44.61106819 132.96185953 -42.94368453 131.29589109 -41.2734375 129.6328125 C-35.87791398 122.21536401 -31.85313218 114.00184643 -27.8984375 105.7578125 C-27.25515503 104.42073242 -27.25515503 104.42073242 -26.59887695 103.05664062 C-24.3650296 98.30464617 -22.53769082 93.73150444 -21.2734375 88.6328125 C-21.6034375 88.6328125 -21.9334375 88.6328125 -22.2734375 88.6328125 Z " fill="#FCFCFC" transform="translate(223.2734375,214.3671875)"/>
<path d="M0 0 C2.64 0.99 5.28 1.98 8 3 C8.35766804 8.09288182 7.22604359 11.44321995 5.125 16.0625 C4.59132813 17.24972656 4.05765625 18.43695313 3.5078125 19.66015625 C3.01023437 20.76230469 2.51265625 21.86445313 2 23 C0.69903375 26.08076037 -0.35309819 29.05948523 -1.125 32.3125 C-1.41375 33.529375 -1.7025 34.74625 -2 36 C-1.62488281 35.50628906 -1.24976563 35.01257813 -0.86328125 34.50390625 C3.31015929 29.27922124 3.31015929 29.27922124 6.625 27.9375 C9.4165016 28.01096057 10.79347276 28.26630002 13 30 C14.97086 35.02909105 12.83454188 39.22285429 11.0625 44 C8.41878022 50.80072457 8.41878022 50.80072457 8 58 C11.11256477 53.6727758 13.9129569 49.22268539 16.44921875 44.53515625 C16.87992676 43.73964355 17.31063477 42.94413086 17.75439453 42.12451172 C18.61530957 40.52061961 19.4668324 38.91164462 20.30810547 37.29736328 C22.6505291 32.93409825 24.65505938 29.65292047 29 27 C33.89864833 26.37794942 36.00145471 26.50980504 40.4375 28.6875 C43.27630248 31.24934614 43.60148178 32.31370646 44 36 C44.99 36.495 44.99 36.495 46 37 C45.25339288 42.72398793 44.17122859 48.34853777 43 54 C44.17213045 52.21190303 45.33755526 50.41940875 46.5 48.625 C47.1496875 47.62726563 47.799375 46.62953125 48.46875 45.6015625 C50.1690821 43.21585803 50.1690821 43.21585803 50 41 C50.66 41 51.32 41 52 41 C52.67801034 38.09926819 52.67801034 38.09926819 53 35 C52.34 34.34 51.68 33.68 51 33 C50.38671286 26.86712858 51.01833216 23.94692065 55 19 C55.495 18.505 55.495 18.505 56 18 C59.5 18.3125 59.5 18.3125 63 19 C64.31157516 21.62315032 63.89649988 23.23033436 63.5625 26.125 C63.40974609 27.49011719 63.40974609 27.49011719 63.25390625 28.8828125 C63.17011719 29.58148438 63.08632813 30.28015625 63 31 C64.093125 30.938125 65.18625 30.87625 66.3125 30.8125 C70 31 70 31 71.9375 32.125 C73.82287826 35.45213811 73.2642968 38.74459022 72.5 42.375 C72.335 42.91125 72.17 43.4475 72 44 C71.34 44 70.68 44 70 44 C69.87625 44.66 69.7525 45.32 69.625 46 C68.85479462 49.69698583 67.93049337 53.34005942 67 57 C75.4756217 49.55172639 80.10546296 39.75113756 83 29 C83 28.67 83 28.34 83 28 C86.36704285 27.7704289 88.41370268 27.66056471 91.375 29.375 C91.91125 29.91125 92.4475 30.4475 93 31 C93 31.66 93 32.32 93 33 C93.65355469 32.33291016 93.65355469 32.33291016 94.3203125 31.65234375 C99.21640091 27 99.21640091 27 103.3125 27 C106 28 106 28 108 30 C108.125 33.125 108.125 33.125 108 36 C108.44730469 35.43410156 108.89460938 34.86820312 109.35546875 34.28515625 C110.26232422 33.18494141 110.26232422 33.18494141 111.1875 32.0625 C111.77917969 31.33160156 112.37085938 30.60070312 112.98046875 29.84765625 C115.36796579 27.66335045 116.78756375 27.16474032 120 27 C122.8125 28.9375 122.8125 28.9375 125 31 C124.70996094 31.92619141 124.70996094 31.92619141 124.4140625 32.87109375 C122.67003849 38.54348868 121.21782106 44.19193035 120 50 C119.34 50 118.68 50 118 50 C118.33 51.65 118.66 53.3 119 55 C120.17232685 53.3790787 121.3377077 51.75313167 122.5 50.125 C123.1496875 49.22007812 123.799375 48.31515625 124.46875 47.3828125 C126.18020606 45.19164492 126.18020606 45.19164492 126 43 C126.66 43 127.32 43 128 43 C128.37125 41.948125 128.37125 41.948125 128.75 40.875 C131.08895757 35.49539759 134.3013662 30.55007887 139 27 C143.6303603 26.03007025 146.94427814 26.36216804 151 28.8125 C153 31 153 31 154 34 C153.67 34.66 153.34 35.32 153 36 C153.99 36.33 154.98 36.66 156 37 C156.37472923 42.12129941 155.06268523 45.35895823 153 50 C153 51.32 153 52.64 153 54 C153.66 52.35 154.32 50.7 155 49 C155.66 49 156.32 49 157 49 C157.185625 48.13375 157.185625 48.13375 157.375 47.25 C158.00648824 44.97664233 158.88858191 43.0746471 160 41 C160.66 41 161.32 41 162 41 C162 40.34 162 39.68 162 39 C163.32 39.33 164.64 39.66 166 40 C165.42534001 44.52967285 163.64518187 47.64609834 161.25 51.5 C160.57453125 52.6034375 159.8990625 53.706875 159.203125 54.84375 C153.82908546 62.54272864 153.82908546 62.54272864 149.5 63.625 C145.92515822 62.73128956 144.35874364 60.75186758 142 58 C141.67 57.34 141.34 56.68 141 56 C140.319375 56.845625 139.63875 57.69125 138.9375 58.5625 C136 61 136 61 132.375 61 C129.05775363 60.01711219 128.19533463 59.44813074 126 57 C125.52949219 57.42152344 125.05898438 57.84304688 124.57421875 58.27734375 C123.95160156 58.82519531 123.32898438 59.37304688 122.6875 59.9375 C122.07261719 60.48277344 121.45773437 61.02804687 120.82421875 61.58984375 C119 63 119 63 116 64 C112.0808744 62.0404372 110.24450793 60.41260713 108 56.625 C106.8690607 52.52534504 107.23921148 50.79959628 109 47 C106.08975798 49.50058918 104.83208836 52.19655377 103.3125 55.6875 C102.87550781 56.68136719 102.43851562 57.67523438 101.98828125 58.69921875 C101.66214844 59.45847656 101.33601563 60.21773438 101 61 C97.17557062 60.1724449 95.3450097 59.26626351 93 56 C92.65057306 53.24280309 92.81927142 50.80129306 93 48 C93 47.34 93 46.68 93 46 C92.03810003 47.72718516 91.08063492 49.45684058 90.125 51.1875 C89.59132813 52.15042969 89.05765625 53.11335938 88.5078125 54.10546875 C87.1576322 56.69739518 86.02901671 59.26761098 85 62 C79.46153846 61.50769231 79.46153846 61.50769231 77.125 58.9375 C76.75375 58.298125 76.3825 57.65875 76 57 C75.34 57.99 74.68 58.98 74 60 C73.34 60 72.68 60 72 60 C71.62875 60.928125 71.62875 60.928125 71.25 61.875 C69.74177256 64.43898664 68.82363942 65.11257047 66 66 C62.51116436 65.65962579 60.97180967 64.98120645 58 63 C58 62.34 58 61.68 58 61 C57.34 60.67 56.68 60.34 56 60 C57.02656524 52.13867147 58.70769307 45.22389676 62 38 C58.54979622 39.15006793 58.32051617 39.65540618 56.58984375 42.67578125 C56.15736328 43.42150391 55.72488281 44.16722656 55.27929688 44.93554688 C54.83650391 45.71994141 54.39371094 46.50433594 53.9375 47.3125 C53.49083984 48.08529297 53.04417969 48.85808594 52.58398438 49.65429688 C50.17079183 53.83536606 50.17079183 53.83536606 47.99438477 58.14135742 C46.49614295 60.94177848 44.90263259 61.77444402 42 63 C38.4375 63.0625 38.4375 63.0625 35 62 C32.5625 58.9375 32.5625 58.9375 31 56 C29.9790625 57.2684375 29.9790625 57.2684375 28.9375 58.5625 C26 61 26 61 22.375 60.9375 C19 60 19 60 16 58 C15.62488281 58.55429687 15.24976563 59.10859375 14.86328125 59.6796875 C9.58201001 67.15594552 9.58201001 67.15594552 5 68 C2.9375 68 2.9375 68 1 67 C-1.70412977 64.22278565 -2.98756568 62.22922102 -3.02734375 58.296875 C-2.84623237 56.38882837 -2.62521492 54.48403455 -2.359375 52.5859375 C-1.90823339 49.774811 -1.90823339 49.774811 -2 46 C-5.54628896 51.54247048 -8.59441952 56.53432978 -10 63 C-12.60247442 62.64831427 -14.51158829 62.36195832 -16.64453125 60.78125 C-18.47520663 58.37552097 -18.40039342 56.81315618 -18.375 53.8125 C-18.38273437 52.91144531 -18.39046875 52.01039063 -18.3984375 51.08203125 C-17.97369031 47.79648677 -17.05409249 45.18056106 -15.83349609 42.12182617 C-15.00052469 40.00133571 -14.27253715 37.87015021 -13.5703125 35.703125 C-13.3345752 34.97746338 -13.09883789 34.25180176 -12.85595703 33.50415039 C-12.61474121 32.76028076 -12.37352539 32.01641113 -12.125 31.25 C-10.0052103 24.77093299 -7.66760834 18.5115394 -4.8828125 12.28515625 C-3.81981613 9.94188725 -3.81981613 9.94188725 -4 7 C-3.34 7 -2.68 7 -2 7 C-1.34 4.69 -0.68 2.38 0 0 Z M92 33 C92.33 33.99 92.66 34.98 93 36 C93 35.01 93 34.02 93 33 C92.67 33 92.34 33 92 33 Z M143.5 36.25 C139.93985514 40.16615934 137.73340299 43.1076844 136.3125 48.25 C136.06113281 49.14203125 135.80976563 50.0340625 135.55078125 50.953125 C135.36902344 51.62859375 135.18726563 52.3040625 135 53 C140.93544339 47.5882722 144.98697801 40.91131566 149 34 C145.8110794 33.66551763 145.8110794 33.66551763 143.5 36.25 Z M36 34 C31.20056804 38.11379882 28.12634189 43.02599182 26 49 C26.33 49.99 26.66 50.98 27 52 C31.46444815 46.58246742 35.09138562 41.39895163 38 35 C37.34 34.67 36.68 34.34 36 34 Z M95 41 C96 43 96 43 96 43 Z M109 43 C108.67 43.99 108.34 44.98 108 46 C108.99 46.495 108.99 46.495 110 47 C109.67 45.68 109.34 44.36 109 43 Z " fill="#FBFBFB" transform="translate(287,307)"/>
<path d="M0 0 C3.0625 2.4375 3.0625 2.4375 5 5 C5 5.66 5 6.32 5 7 C5.66 7.33 6.32 7.66 7 8 C6.20322621 17.17102895 3.72163105 24.67310172 -2 32 C-4.73046875 33.83984375 -4.73046875 33.83984375 -7 35 C-13.86214442 29.9059081 -13.86214442 29.9059081 -14.4375 26.125 C-14.293125 25.42375 -14.14875 24.7225 -14 24 C-13.113125 23.855625 -12.22625 23.71125 -11.3125 23.5625 C-6.5430493 21.31275911 -5.02688071 17.73208007 -3 13 C-2.63169256 11.67590086 -2.28545427 10.34439754 -2 9 C-10.47039649 10.08690928 -19.81957528 12.81957528 -26 19 C-27.4279865 19.93141752 -28.8668842 20.84618642 -30.3125 21.75 C-35.02374069 24.86806751 -39.28086832 27.91222836 -40.625 33.68359375 C-40.74875 34.44800781 -40.8725 35.21242188 -41 36 C-40.28972656 36.26554687 -39.57945312 36.53109375 -38.84765625 36.8046875 C-37.46900391 37.33449219 -37.46900391 37.33449219 -36.0625 37.875 C-34.68771484 38.39707031 -34.68771484 38.39707031 -33.28515625 38.9296875 C-31 40 -31 40 -30 42 C-28.741875 42.2475 -27.48375 42.495 -26.1875 42.75 C-18.99927036 44.22214943 -10.95956948 47.32189598 -5.9375 52.875 C-2.84047017 57.8702094 -1 62.08579529 -1 68 C-1.66 68 -2.32 68 -3 68 C-2.8453125 69.3921875 -2.8453125 69.3921875 -2.6875 70.8125 C-2.8421875 72.3903125 -2.8421875 72.3903125 -3 74 C-5.234375 75.48828125 -5.234375 75.48828125 -8 77 C-9.52691173 78.11673614 -11.04759704 79.24202689 -12.5625 80.375 C-18.03397526 84.23769821 -23.72913027 86.71318711 -30 89 C-31.175625 89.433125 -32.35125 89.86625 -33.5625 90.3125 C-39.79650797 91.55930159 -46.26913897 92.32205365 -52.0625 89.25 C-54.94806057 87.03978339 -55.78496395 86.27080794 -57 83 C-57.1953125 80.203125 -57.1953125 80.203125 -57.125 77.25 C-57.09792969 75.77273438 -57.09792969 75.77273438 -57.0703125 74.265625 C-57.04710937 73.51796875 -57.02390625 72.7703125 -57 72 C-56.01 71.505 -56.01 71.505 -55 71 C-54.38125 70.38125 -53.7625 69.7625 -53.125 69.125 C-51.17561395 67.17561395 -49.29147501 65.52765001 -47 64 C-46.34 64 -45.68 64 -45 64 C-44.67 63.34 -44.34 62.68 -44 62 C-38.01438849 58.89208633 -38.01438849 58.89208633 -34.0625 59.3125 C-33.381875 59.539375 -32.70125 59.76625 -32 60 C-32 60.99 -32 61.98 -32 63 C-34.484375 64.75390625 -34.484375 64.75390625 -37.75 66.5625 C-38.81734375 67.16191406 -39.8846875 67.76132812 -40.984375 68.37890625 C-42.740598 69.32298986 -44.51122468 70.24265901 -46.3125 71.09765625 C-48.62164638 72.33240813 -49.1391424 73.56090347 -50 76 C-50 77.32 -50 78.64 -50 80 C-39.96712606 82.50821849 -30.37504809 78.19062589 -21.5703125 73.546875 C-18.39906763 71.63834465 -16.33399321 69.86102393 -14 67 C-13.401875 66.34 -12.80375 65.68 -12.1875 65 C-10.71502225 62.52003747 -10.76368065 60.83583219 -11 58 C-16.50947004 54.98538432 -21.65943114 53.14153605 -27.77734375 51.7109375 C-28.51082031 51.47632813 -29.24429688 51.24171875 -30 51 C-30.33 50.34 -30.66 49.68 -31 49 C-31.99 48.9175 -32.98 48.835 -34 48.75 C-39.1978121 48.13786097 -43.08095571 45.32572284 -47 42 C-49.7014499 38.4245516 -50.20770985 35.85987251 -49.9375 31.5 C-48.88168607 24.73370856 -44.88495452 20.54414374 -40 16 C-39.54367188 15.55011719 -39.08734375 15.10023438 -38.6171875 14.63671875 C-29.25630674 5.91087261 -13.23808161 -4.35188903 0 0 Z " fill="#FBFBFB" transform="translate(265,306)"/>
<path d="M0 0 C2.54645219 1.2732261 2.62650982 2.22483617 3.6875 4.8125 C5.90705434 9.48612762 8.36697476 10.85508091 13 13 C13.66 13.33 14.32 13.66 15 14 C14.67 14.99 14.34 15.98 14 17 C13.0925 17.433125 12.185 17.86625 11.25 18.3125 C5.83979437 21.12164523 2.919856 25.77499453 0 31 C-2 28 -2 28 -3.0078125 26.09765625 C-6.11676494 20.43414498 -9.03465523 18.42658093 -15 16 C-15 15.34 -15 14.68 -15 14 C-14.46890625 13.76925781 -13.9378125 13.53851562 -13.390625 13.30078125 C-6.69356121 10.20888866 -3.64928141 6.38624247 0 0 Z " fill="#888888" transform="translate(567,552)"/>
<path d="M0 0 C3.76127491 0.10165608 4.98989184 0.99079034 7.8125 3.5625 C8.534375 4.366875 9.25625 5.17125 10 6 C6.85714286 14.57142857 6.85714286 14.57142857 5 18 C-0.26481665 17.5950141 -2.4798234 16.89400067 -6 13 C-5.3819713 11.20591668 -4.75533919 9.41479522 -4.125 7.625 C-3.77695312 6.62726563 -3.42890625 5.62953125 -3.0703125 4.6015625 C-2 2 -2 2 0 0 Z " fill="#FBFBFB" transform="translate(355,241)"/>
<path d="M0 0 C3.375 0.3125 3.375 0.3125 7 1 C9 4 9 4 8.875 7.25 C7.87197871 11.54866268 6.34643014 14.29112655 4 18 C1.08486382 17.67609598 -1.34781613 17.35764922 -3.9375 15.9375 C-5.73022823 12.66840734 -4.9823646 9.43181318 -4 6 C-2.8372247 3.77291021 -1.54909804 1.99883618 0 0 Z " fill="#FBFBFB" transform="translate(428,241)"/>
<path d="M0 0 C3 1 3 1 3 1 Z " fill="#F9F8F8" transform="translate(214,397)"/>
<path d="M0 0 C0.66 0 1.32 0 2 0 C1.67 0.66 1.34 1.32 1 2 C0.67 1.34 0.34 0.68 0 0 Z " fill="#EDEDED" transform="translate(377,361)"/>
<path d="M0 0 C0.99 0.495 0.99 0.495 2 1 C1.01 1.495 1.01 1.495 0 2 C0 1.34 0 0.68 0 0 Z " fill="#F9F9F9" transform="translate(170,227)"/>
<path d="M0 0 C2 1 2 1 2 1 Z " fill="#F8F8F8" transform="translate(238,395)"/>
<path d="" fill="#F7F7F7" transform="translate(0,0)"/>
<path d="M0 0 C2 1 2 1 2 1 Z " fill="#F8F8F8" transform="translate(299,348)"/>
<path d="M0 0 C2 1 2 1 2 1 Z " fill="#F1F1F1" transform="translate(361,344)"/>
<path d="" fill="#EEEEEE" transform="translate(0,0)"/>
<path d="M0 0 C2 1 2 1 2 1 Z " fill="#EEEEEE" transform="translate(187,323)"/>
<path d="" fill="#EAEAEA" transform="translate(0,0)"/>
<path d="M0 0 C2 1 2 1 2 1 Z " fill="#EEEFEF" transform="translate(234,312)"/>
<path d="" fill="#F3F4F3" transform="translate(0,0)"/>
<path d="M0 0 C2 1 2 1 2 1 Z " fill="#F6F7F6" transform="translate(409,306)"/>
<path d="M0 0 C2 1 2 1 2 1 Z " fill="#FAFAFA" transform="translate(405,302)"/>
<path d="" fill="#E8E9E9" transform="translate(0,0)"/>
<path d="" fill="#ECECEC" transform="translate(0,0)"/>
<path d="M0 0 C2 1 2 1 2 1 Z " fill="#F3F4F4" transform="translate(400,291)"/>
<path d="" fill="#F9F9F9" transform="translate(0,0)"/>
<path d="" fill="#F1F1F1" transform="translate(0,0)"/>
<path d="M0 0 C2 1 2 1 2 1 Z " fill="#FAFAFA" transform="translate(238,264)"/>
<path d="" fill="#F4F4F4" transform="translate(0,0)"/>
<path d="" fill="#E7E7E7" transform="translate(0,0)"/>
<path d="" fill="#8B8B8B" transform="translate(0,0)"/>
<path d="" fill="#767676" transform="translate(0,0)"/>
<path d="" fill="#757575" transform="translate(0,0)"/>
<path d="" fill="#888888" transform="translate(0,0)"/>
<path d="" fill="#8B8B8B" transform="translate(0,0)"/>
<path d="" fill="#888888" transform="translate(0,0)"/>
<path d="" fill="#878787" transform="translate(0,0)"/>
<path d="" fill="#818181" transform="translate(0,0)"/>
<path d="" fill="#EAEAEA" transform="translate(0,0)"/>
<path d="" fill="#EAEAEA" transform="translate(0,0)"/>
<path d="" fill="#FAFAFA" transform="translate(0,0)"/>
<path d="" fill="#F9FAF9" transform="translate(0,0)"/>
<path d="" fill="#E9E9E9" transform="translate(0,0)"/>
<path d="" fill="#FAFAFA" transform="translate(0,0)"/>
<path d="" fill="#F8F9F8" transform="translate(0,0)"/>
<path d="" fill="#DADBDA" transform="translate(0,0)"/>
<path d="" fill="#F9F9F9" transform="translate(0,0)"/>
<path d="" fill="#DCDCDC" transform="translate(0,0)"/>
<path d="" fill="#F7F7F7" transform="translate(0,0)"/>
<path d="" fill="#EDEEED" transform="translate(0,0)"/>
<path d="" fill="#F8F8F8" transform="translate(0,0)"/>
<path d="" fill="#DCDCDC" transform="translate(0,0)"/>
<path d="" fill="#F9F9F9" transform="translate(0,0)"/>
<path d="" fill="#E9E9E9" transform="translate(0,0)"/>
<path d="" fill="#F5F5F5" transform="translate(0,0)"/>
<path d="" fill="#FAFBFB" transform="translate(0,0)"/>
<path d="" fill="#ECECEC" transform="translate(0,0)"/>
<path d="" fill="#E9E9E9" transform="translate(0,0)"/>
<path d="" fill="#E6E6E6" transform="translate(0,0)"/>
<path d="" fill="#E4E4E4" transform="translate(0,0)"/>
<path d="" fill="#F7F7F7" transform="translate(0,0)"/>
<path d="" fill="#DCDCDC" transform="translate(0,0)"/>
<path d="" fill="#ECECEC" transform="translate(0,0)"/>
<path d="" fill="#E6E6E6" transform="translate(0,0)"/>
<path d="" fill="#DCDCDC" transform="translate(0,0)"/>
<path d="" fill="#E3E3E3" transform="translate(0,0)"/>
<path d="" fill="#F9F9F9" transform="translate(0,0)"/>
<path d="" fill="#E8E8E8" transform="translate(0,0)"/>
<path d="" fill="#F7F7F7" transform="translate(0,0)"/>
<path d="" fill="#FAFAFA" transform="translate(0,0)"/>
<path d="" fill="#F5F5F5" transform="translate(0,0)"/>
<path d="" fill="#F6F7F6" transform="translate(0,0)"/>
<path d="" fill="#F9F9F9" transform="translate(0,0)"/>
<path d="" fill="#E9EAEA" transform="translate(0,0)"/>
<path d="" fill="#E4E5E4" transform="translate(0,0)"/>
<path d="" fill="#F8F8F8" transform="translate(0,0)"/>
<path d="" fill="#FBFBFB" transform="translate(0,0)"/>
<path d="" fill="#FAFAFA" transform="translate(0,0)"/>
<path d="" fill="#DCDCDC" transform="translate(0,0)"/>
<path d="" fill="#E9EAEA" transform="translate(0,0)"/>
<path d="" fill="#F9F9F9" transform="translate(0,0)"/>
<path d="" fill="#F9F9F9" transform="translate(0,0)"/>
<path d="" fill="#DADBDB" transform="translate(0,0)"/>
<path d="" fill="#F7F8F8" transform="translate(0,0)"/>
<path d="" fill="#F8F8F8" transform="translate(0,0)"/>
<path d="" fill="#F3F3F3" transform="translate(0,0)"/>
<path d="" fill="#FAFAFA" transform="translate(0,0)"/>
<path d="" fill="#F9F9F9" transform="translate(0,0)"/>
<path d="" fill="#F8F8F8" transform="translate(0,0)"/>
<path d="" fill="#EBECEC" transform="translate(0,0)"/>
<path d="" fill="#F8F9F9" transform="translate(0,0)"/>
<path d="" fill="#F8F8F8" transform="translate(0,0)"/>
<path d="" fill="#F9FAF9" transform="translate(0,0)"/>
<path d="" fill="#FAFAFA" transform="translate(0,0)"/>
<path d="" fill="#F5F5F5" transform="translate(0,0)"/>
<path d="" fill="#FAFAFA" transform="translate(0,0)"/>
<path d="" fill="#FAFAFA" transform="translate(0,0)"/>
<path d="" fill="#F6F6F6" transform="translate(0,0)"/>
<path d="" fill="#E8E8E8" transform="translate(0,0)"/>
<path d="" fill="#F4F4F4" transform="translate(0,0)"/>
<path d="" fill="#F7F7F7" transform="translate(0,0)"/>
<path d="" fill="#E9E9E9" transform="translate(0,0)"/>
<path d="" fill="#EEEEEE" transform="translate(0,0)"/>
<path d="" fill="#F7F7F7" transform="translate(0,0)"/>
<path d="" fill="#E5E5E5" transform="translate(0,0)"/>
<path d="" fill="#E6E6E6" transform="translate(0,0)"/>
<path d="" fill="#F6F6F6" transform="translate(0,0)"/>
<path d="" fill="#F8F8F8" transform="translate(0,0)"/>
<path d="" fill="#F9F9F9" transform="translate(0,0)"/>
<path d="" fill="#F9F9F9" transform="translate(0,0)"/>
<path d="" fill="#FCFCFC" transform="translate(0,0)"/>
<path d="" fill="#ECEDED" transform="translate(0,0)"/>
<path d="" fill="#E7E8E8" transform="translate(0,0)"/>
<path d="" fill="#F8F9F9" transform="translate(0,0)"/>
<path d="" fill="#EAEAEA" transform="translate(0,0)"/>
<path d="" fill="#F8F8F8" transform="translate(0,0)"/>
<path d="" fill="#FAFAF9" transform="translate(0,0)"/>
<path d="" fill="#FAFAFA" transform="translate(0,0)"/>
<path d="" fill="#DBDBDB" transform="translate(0,0)"/>
<path d="" fill="#EAEAEA" transform="translate(0,0)"/>
<path d="" fill="#F9FAF9" transform="translate(0,0)"/>
<path d="" fill="#F7F8F8" transform="translate(0,0)"/>
<path d="" fill="#F8F9F9" transform="translate(0,0)"/>
<path d="" fill="#DCDCDC" transform="translate(0,0)"/>
<path d="" fill="#F8F8F8" transform="translate(0,0)"/>
<path d="" fill="#F7F7F7" transform="translate(0,0)"/>
<path d="" fill="#ECECEC" transform="translate(0,0)"/>
<path d="" fill="#F8F8F8" transform="translate(0,0)"/>
<path d="" fill="#DEDEDE" transform="translate(0,0)"/>
<path d="" fill="#F5F5F6" transform="translate(0,0)"/>
<path d="" fill="#DBDCDB" transform="translate(0,0)"/>
<path d="" fill="#DBDCDC" transform="translate(0,0)"/>
<path d="" fill="#EAEAEA" transform="translate(0,0)"/>
<path d="" fill="#F8F9F9" transform="translate(0,0)"/>
<path d="" fill="#F8F8F8" transform="translate(0,0)"/>
<path d="" fill="#F4F5F4" transform="translate(0,0)"/>
<path d="" fill="#F8F8F8" transform="translate(0,0)"/>
<path d="" fill="#E7E7E7" transform="translate(0,0)"/>
<path d="" fill="#F7F8F8" transform="translate(0,0)"/>
<path d="" fill="#F7F7F6" transform="translate(0,0)"/>
<path d="" fill="#ECEDED" transform="translate(0,0)"/>
<path d="" fill="#F7F7F7" transform="translate(0,0)"/>
<path d="" fill="#FAFAFA" transform="translate(0,0)"/>
<path d="" fill="#FAFBFA" transform="translate(0,0)"/>
<path d="" fill="#FAFAFA" transform="translate(0,0)"/>
<path d="" fill="#DEDEDE" transform="translate(0,0)"/>
<path d="" fill="#F6F6F6" transform="translate(0,0)"/>
<path d="" fill="#E8E9E9" transform="translate(0,0)"/>
<path d="" fill="#FBFBFB" transform="translate(0,0)"/>
<path d="" fill="#ECECEC" transform="translate(0,0)"/>
<path d="" fill="#E7E8E8" transform="translate(0,0)"/>
<path d="" fill="#FBFCFC" transform="translate(0,0)"/>
<path d="" fill="#E8E9E9" transform="translate(0,0)"/>
<path d="" fill="#E8E8E8" transform="translate(0,0)"/>
<path d="" fill="#FBFBFB" transform="translate(0,0)"/>
<path d="" fill="#F6F6F6" transform="translate(0,0)"/>
<path d="" fill="#FAFAFA" transform="translate(0,0)"/>
<path d="" fill="#F1F1F1" transform="translate(0,0)"/>
<path d="" fill="#F2F2F2" transform="translate(0,0)"/>
<path d="" fill="#EDEDED" transform="translate(0,0)"/>
<path d="" fill="#DDDDDD" transform="translate(0,0)"/>
<path d="" fill="#FAFAFA" transform="translate(0,0)"/>
<path d="" fill="#E5E5E5" transform="translate(0,0)"/>
<path d="" fill="#F5F5F5" transform="translate(0,0)"/>
<path d="" fill="#EAEAEA" transform="translate(0,0)"/>
<path d="" fill="#F9FAFA" transform="translate(0,0)"/>
<path d="" fill="#E8E9E8" transform="translate(0,0)"/>
<path d="" fill="#FBFBFB" transform="translate(0,0)"/>
<path d="" fill="#FAFAFA" transform="translate(0,0)"/>
<path d="" fill="#E8E9E9" transform="translate(0,0)"/>
<path d="" fill="#DCDDDD" transform="translate(0,0)"/>
<path d="" fill="#F9F9F9" transform="translate(0,0)"/>
<path d="" fill="#E8E9E9" transform="translate(0,0)"/>
<path d="" fill="#F8F8F8" transform="translate(0,0)"/>
<path d="" fill="#ECECEC" transform="translate(0,0)"/>
<path d="" fill="#DEDEDE" transform="translate(0,0)"/>
<path d="" fill="#DBDCDC" transform="translate(0,0)"/>
<path d="" fill="#FAFAFA" transform="translate(0,0)"/>
<path d="" fill="#E5E6E6" transform="translate(0,0)"/>
<path d="" fill="#F7F7F7" transform="translate(0,0)"/>
<path d="" fill="#F5F5F5" transform="translate(0,0)"/>
<path d="" fill="#F7F8F8" transform="translate(0,0)"/>
<path d="" fill="#EAEAEA" transform="translate(0,0)"/>
<path d="" fill="#FAFBFB" transform="translate(0,0)"/>
<path d="" fill="#F1F2F2" transform="translate(0,0)"/>
<path d="" fill="#F8F8F8" transform="translate(0,0)"/>
<path d="" fill="#DEDEDE" transform="translate(0,0)"/>
<path d="" fill="#F7F7F7" transform="translate(0,0)"/>
<path d="" fill="#F5F5F5" transform="translate(0,0)"/>
<path d="" fill="#E6E7E6" transform="translate(0,0)"/>
<path d="" fill="#F4F4F4" transform="translate(0,0)"/>
<path d="" fill="#EBEBEB" transform="translate(0,0)"/>
<path d="" fill="#E9E9E9" transform="translate(0,0)"/>
<path d="" fill="#E6E6E6" transform="translate(0,0)"/>
<path d="" fill="#DCDCDC" transform="translate(0,0)"/>
<path d="" fill="#EBEBEB" transform="translate(0,0)"/>
<path d="" fill="#E6E6E6" transform="translate(0,0)"/>
<path d="" fill="#E5E5E5" transform="translate(0,0)"/>
<path d="" fill="#E5E5E5" transform="translate(0,0)"/>
<path d="" fill="#E6E6E6" transform="translate(0,0)"/>
<path d="" fill="#DCDCDC" transform="translate(0,0)"/>
<path d="" fill="#E5E5E5" transform="translate(0,0)"/>
<path d="" fill="#FAFBFA" transform="translate(0,0)"/>
<path d="" fill="#E5E5E5" transform="translate(0,0)"/>
<path d="" fill="#DCDCDC" transform="translate(0,0)"/>
<path d="" fill="#E6E6E6" transform="translate(0,0)"/>
<path d="" fill="#F9F9F9" transform="translate(0,0)"/>
<path d="" fill="#E5E5E5" transform="translate(0,0)"/>
<path d="" fill="#E6E6E6" transform="translate(0,0)"/>
<path d="" fill="#F7F7F7" transform="translate(0,0)"/>
<path d="" fill="#E7E7E7" transform="translate(0,0)"/>
<path d="" fill="#F7F7F7" transform="translate(0,0)"/>
<path d="" fill="#F7F8F7" transform="translate(0,0)"/>
<path d="" fill="#EAEAEA" transform="translate(0,0)"/>
<path d="" fill="#FAFAFA" transform="translate(0,0)"/>
<path d="" fill="#FAFAFB" transform="translate(0,0)"/>
<path d="" fill="#DCDDDD" transform="translate(0,0)"/>
<path d="" fill="#F8F8F8" transform="translate(0,0)"/>
<path d="" fill="#F9F9F9" transform="translate(0,0)"/>
<path d="" fill="#EBEBEB" transform="translate(0,0)"/>
<path d="" fill="#F1F1F1" transform="translate(0,0)"/>
<path d="" fill="#DDDDDD" transform="translate(0,0)"/>
<path d="" fill="#EEEEEE" transform="translate(0,0)"/>
<path d="" fill="#E6E6E6" transform="translate(0,0)"/>
<path d="" fill="#E9EAEA" transform="translate(0,0)"/>
<path d="" fill="#FCFCFC" transform="translate(0,0)"/>
<path d="" fill="#F5F5F5" transform="translate(0,0)"/>
<path d="" fill="#F0F1F1" transform="translate(0,0)"/>
<path d="" fill="#F9F9F9" transform="translate(0,0)"/>
<path d="" fill="#DDDDDD" transform="translate(0,0)"/>
<path d="" fill="#FAFAFA" transform="translate(0,0)"/>
<path d="" fill="#FAFBFB" transform="translate(0,0)"/>
<path d="" fill="#F8F8F8" transform="translate(0,0)"/>
<path d="" fill="#F2F2F2" transform="translate(0,0)"/>
<path d="" fill="#DDDDDD" transform="translate(0,0)"/>
<path d="" fill="#F8F8F8" transform="translate(0,0)"/>
<path d="" fill="#F6F6F6" transform="translate(0,0)"/>
<path d="" fill="#DDDEDE" transform="translate(0,0)"/>
<path d="" fill="#F8F8F8" transform="translate(0,0)"/>
<path d="" fill="#ECECEC" transform="translate(0,0)"/>
<path d="" fill="#F9FAF9" transform="translate(0,0)"/>
<path d="" fill="#FBFBFB" transform="translate(0,0)"/>
<path d="" fill="#DEDFDF" transform="translate(0,0)"/>
<path d="" fill="#E5E6E6" transform="translate(0,0)"/>
<path d="" fill="#DCDCDC" transform="translate(0,0)"/>
<path d="" fill="#EDEEEE" transform="translate(0,0)"/>
<path d="" fill="#FBFBFB" transform="translate(0,0)"/>
<path d="" fill="#E9EAEA" transform="translate(0,0)"/>
<path d="" fill="#DCDDDD" transform="translate(0,0)"/>
<path d="" fill="#DDDDDD" transform="translate(0,0)"/>
<path d="" fill="#DCDCDC" transform="translate(0,0)"/>
<path d="" fill="#ECECEC" transform="translate(0,0)"/>
<path d="" fill="#E7E8E8" transform="translate(0,0)"/>
<path d="" fill="#F7F7F8" transform="translate(0,0)"/>
<path d="" fill="#ECECEC" transform="translate(0,0)"/>
<path d="" fill="#DCDDDD" transform="translate(0,0)"/>
<path d="" fill="#F6F6F6" transform="translate(0,0)"/>
<path d="" fill="#ECECEC" transform="translate(0,0)"/>
<path d="" fill="#EBEBEB" transform="translate(0,0)"/>
<path d="" fill="#FAFAFA" transform="translate(0,0)"/>
<path d="" fill="#F9F9F9" transform="translate(0,0)"/>
<path d="" fill="#F1F1F1" transform="translate(0,0)"/>
<path d="" fill="#E8E8E8" transform="translate(0,0)"/>
<path d="" fill="#EDEEEE" transform="translate(0,0)"/>
<path d="" fill="#F8F8F8" transform="translate(0,0)"/>
<path d="" fill="#F5F5F5" transform="translate(0,0)"/>
<path d="" fill="#ECEDED" transform="translate(0,0)"/>
<path d="" fill="#F7F7F7" transform="translate(0,0)"/>
<path d="" fill="#FAFAFA" transform="translate(0,0)"/>
<path d="" fill="#FAFAFA" transform="translate(0,0)"/>
<path d="" fill="#E7E8E8" transform="translate(0,0)"/>
<path d="" fill="#EFEFEF" transform="translate(0,0)"/>
<path d="" fill="#EAEAEA" transform="translate(0,0)"/>
<path d="" fill="#F9F9F9" transform="translate(0,0)"/>
<path d="" fill="#DDDDDD" transform="translate(0,0)"/>
<path d="" fill="#FAFAFA" transform="translate(0,0)"/>
<path d="" fill="#DDDEDE" transform="translate(0,0)"/>
<path d="" fill="#FAFAFA" transform="translate(0,0)"/>
<path d="" fill="#EFEFEF" transform="translate(0,0)"/>
<path d="" fill="#F9F9F9" transform="translate(0,0)"/>
<path d="" fill="#F7F8F8" transform="translate(0,0)"/>
<path d="" fill="#FCFCFD" transform="translate(0,0)"/>
<path d="" fill="#E7E8E8" transform="translate(0,0)"/>
<path d="" fill="#DFDFDF" transform="translate(0,0)"/>
<path d="" fill="#F8F8F8" transform="translate(0,0)"/>
<path d="" fill="#FAFAFA" transform="translate(0,0)"/>
<path d="" fill="#E6E6E6" transform="translate(0,0)"/>
<path d="" fill="#FAFAFA" transform="translate(0,0)"/>
<path d="" fill="#FAFAFA" transform="translate(0,0)"/>
<path d="" fill="#E8E9E9" transform="translate(0,0)"/>
<path d="" fill="#EFEFEF" transform="translate(0,0)"/>
<path d="" fill="#FBFBFB" transform="translate(0,0)"/>
<path d="" fill="#E8E9E9" transform="translate(0,0)"/>
<path d="" fill="#F8F8F8" transform="translate(0,0)"/>
<path d="" fill="#FAFAFA" transform="translate(0,0)"/>
<path d="" fill="#FBFBFB" transform="translate(0,0)"/>
<path d="" fill="#ECECEC" transform="translate(0,0)"/>
<path d="" fill="#F9F9F9" transform="translate(0,0)"/>
<path d="" fill="#FAFAFA" transform="translate(0,0)"/>
<path d="" fill="#F6F6F6" transform="translate(0,0)"/>
<path d="" fill="#F8F9F9" transform="translate(0,0)"/>
<path d="" fill="#FAFAFA" transform="translate(0,0)"/>
<path d="" fill="#DFDFDF" transform="translate(0,0)"/>
<path d="" fill="#F5F5F5" transform="translate(0,0)"/>
<path d="" fill="#F7F7F7" transform="translate(0,0)"/>
<path d="" fill="#F9FAFA" transform="translate(0,0)"/>
<path d="" fill="#F8F8F8" transform="translate(0,0)"/>
<path d="" fill="#F9FAFA" transform="translate(0,0)"/>
<path d="" fill="#F9F9F9" transform="translate(0,0)"/>
<path d="" fill="#E7E7E7" transform="translate(0,0)"/>
<path d="" fill="#F8F8F8" transform="translate(0,0)"/>
<path d="" fill="#E8E9E9" transform="translate(0,0)"/>
<path d="" fill="#EAEAEA" transform="translate(0,0)"/>
<path d="" fill="#F5F5F5" transform="translate(0,0)"/>
<path d="" fill="#F7F7F7" transform="translate(0,0)"/>
<path d="" fill="#F9F9F9" transform="translate(0,0)"/>
<path d="" fill="#E8E9E9" transform="translate(0,0)"/>
<path d="" fill="#FAFAFA" transform="translate(0,0)"/>
<path d="" fill="#F8F8F8" transform="translate(0,0)"/>
<path d="" fill="#F5F5F5" transform="translate(0,0)"/>
<path d="" fill="#DFDFDF" transform="translate(0,0)"/>
<path d="" fill="#EFF0F0" transform="translate(0,0)"/>
<path d="" fill="#FBFBFB" transform="translate(0,0)"/>
<path d="" fill="#DDDDDD" transform="translate(0,0)"/>
<path d="" fill="#EAEBEB" transform="translate(0,0)"/>
<path d="" fill="#FAFAFA" transform="translate(0,0)"/>
<path d="" fill="#FBFBFB" transform="translate(0,0)"/>
<path d="" fill="#FBFBFB" transform="translate(0,0)"/>
<path d="" fill="#F9F9F9" transform="translate(0,0)"/>
<path d="" fill="#F7F8F8" transform="translate(0,0)"/>
<path d="" fill="#EDEEEE" transform="translate(0,0)"/>
<path d="" fill="#FAFAFA" transform="translate(0,0)"/>
<path d="" fill="#EAEAEA" transform="translate(0,0)"/>
<path d="" fill="#F8F8F8" transform="translate(0,0)"/>
<path d="" fill="#EBEBEB" transform="translate(0,0)"/>
<path d="" fill="#FAFAFA" transform="translate(0,0)"/>
<path d="" fill="#FCFCFC" transform="translate(0,0)"/>
<path d="" fill="#F5F6F7" transform="translate(0,0)"/>
<path d="" fill="#DDDDDD" transform="translate(0,0)"/>
<path d="" fill="#FBFBFB" transform="translate(0,0)"/>
<path d="" fill="#ECEDED" transform="translate(0,0)"/>
<path d="" fill="#F6F6F6" transform="translate(0,0)"/>
<path d="" fill="#F8F8F8" transform="translate(0,0)"/>
<path d="" fill="#ECECEC" transform="translate(0,0)"/>
<path d="" fill="#F9F9F9" transform="translate(0,0)"/>
<path d="" fill="#F1F1F1" transform="translate(0,0)"/>
<path d="" fill="#F8F8F8" transform="translate(0,0)"/>
<path d="" fill="#E7E7E7" transform="translate(0,0)"/>
<path d="" fill="#F9F9F9" transform="translate(0,0)"/>
<path d="" fill="#FBFBFB" transform="translate(0,0)"/>
<path d="" fill="#DEDFDF" transform="translate(0,0)"/>
<path d="" fill="#EAEAEA" transform="translate(0,0)"/>
<path d="" fill="#EAEAEA" transform="translate(0,0)"/>
<path d="" fill="#E7E7E7" transform="translate(0,0)"/>
<path d="" fill="#F7F8F8" transform="translate(0,0)"/>
<path d="" fill="#F3F3F3" transform="translate(0,0)"/>
<path d="" fill="#EBECEB" transform="translate(0,0)"/>
<path d="" fill="#F7F8F8" transform="translate(0,0)"/>
<path d="" fill="#EEEFEF" transform="translate(0,0)"/>
<path d="" fill="#E8E8E8" transform="translate(0,0)"/>
<path d="" fill="#F9FAFA" transform="translate(0,0)"/>
<path d="" fill="#FCFCFC" transform="translate(0,0)"/>
<path d="" fill="#F9F9F9" transform="translate(0,0)"/>
<path d="" fill="#EAEBEB" transform="translate(0,0)"/>
<path d="" fill="#FAFAFA" transform="translate(0,0)"/>
<path d="" fill="#EDEDED" transform="translate(0,0)"/>
<path d="" fill="#DFDFDF" transform="translate(0,0)"/>
<path d="" fill="#F8F8F8" transform="translate(0,0)"/>
<path d="" fill="#FAFAFA" transform="translate(0,0)"/>
<path d="" fill="#F6F7F6" transform="translate(0,0)"/>
<path d="" fill="#E8E9E8" transform="translate(0,0)"/>
<path d="" fill="#F1F1F1" transform="translate(0,0)"/>
<path d="" fill="#FAF9F9" transform="translate(0,0)"/>
<path d="" fill="#FAFAFA" transform="translate(0,0)"/>
<path d="" fill="#E8E8E8" transform="translate(0,0)"/>
<path d="" fill="#EDEDED" transform="translate(0,0)"/>
<path d="" fill="#FBFBFB" transform="translate(0,0)"/>
<path d="" fill="#F9F9F9" transform="translate(0,0)"/>
<path d="" fill="#ECECEC" transform="translate(0,0)"/>
<path d="" fill="#EAEBEB" transform="translate(0,0)"/>
<path d="" fill="#FCFCFC" transform="translate(0,0)"/>
<path d="" fill="#F1F1F1" transform="translate(0,0)"/>
<path d="" fill="#E8E9E9" transform="translate(0,0)"/>
<path d="" fill="#F7F7F7" transform="translate(0,0)"/>
<path d="" fill="#F9F9F9" transform="translate(0,0)"/>
<path d="" fill="#F5F5F5" transform="translate(0,0)"/>
<path d="" fill="#EAEBEA" transform="translate(0,0)"/>
<path d="" fill="#ECECEC" transform="translate(0,0)"/>
<path d="" fill="#EAEAEA" transform="translate(0,0)"/>
<path d="" fill="#F0F1F1" transform="translate(0,0)"/>
<path d="" fill="#EDEDED" transform="translate(0,0)"/>
<path d="" fill="#F9F9F9" transform="translate(0,0)"/>
<path d="" fill="#DEDEDE" transform="translate(0,0)"/>
<path d="" fill="#F7F8F8" transform="translate(0,0)"/>
<path d="" fill="#F0F0F0" transform="translate(0,0)"/>
<path d="" fill="#E7E7E7" transform="translate(0,0)"/>
<path d="" fill="#DEDEDE" transform="translate(0,0)"/>
<path d="" fill="#EBECEB" transform="translate(0,0)"/>
<path d="" fill="#EBECEC" transform="translate(0,0)"/>
<path d="" fill="#FCFDFD" transform="translate(0,0)"/>
<path d="" fill="#FAFAFA" transform="translate(0,0)"/>
<path d="" fill="#F8F8F8" transform="translate(0,0)"/>
<path d="" fill="#FAFBFA" transform="translate(0,0)"/>
<path d="" fill="#DEDEDE" transform="translate(0,0)"/>
<path d="" fill="#E8E8E8" transform="translate(0,0)"/>
<path d="" fill="#ECECEC" transform="translate(0,0)"/>
<path d="" fill="#DDDDDD" transform="translate(0,0)"/>
<path d="" fill="#FAFAFA" transform="translate(0,0)"/>
<path d="" fill="#DDDEDE" transform="translate(0,0)"/>
<path d="" fill="#FCFCFC" transform="translate(0,0)"/>
<path d="" fill="#FAFAFA" transform="translate(0,0)"/>
<path d="" fill="#FCFCFC" transform="translate(0,0)"/>
<path d="" fill="#E7E7E7" transform="translate(0,0)"/>
<path d="" fill="#E6E6E6" transform="translate(0,0)"/>
<path d="" fill="#FBFCFB" transform="translate(0,0)"/>
<path d="" fill="#DEDEDE" transform="translate(0,0)"/>
<path d="" fill="#EEEEEE" transform="translate(0,0)"/>
<path d="" fill="#DEDEDE" transform="translate(0,0)"/>
<path d="" fill="#DEDFDF" transform="translate(0,0)"/>
<path d="" fill="#F1F1F1" transform="translate(0,0)"/>
<path d="" fill="#E8E9E9" transform="translate(0,0)"/>
<path d="" fill="#EBEBEB" transform="translate(0,0)"/>
<path d="" fill="#DEDEDE" transform="translate(0,0)"/>
<path d="" fill="#F3F3F3" transform="translate(0,0)"/>
<path d="" fill="#E7E7E7" transform="translate(0,0)"/>
<path d="" fill="#F5F6F6" transform="translate(0,0)"/>
<path d="" fill="#DDDEDE" transform="translate(0,0)"/>
<path d="" fill="#FAFAFA" transform="translate(0,0)"/>
<path d="" fill="#F0F0F0" transform="translate(0,0)"/>
<path d="" fill="#DEDEDE" transform="translate(0,0)"/>
<path d="" fill="#E0E0E0" transform="translate(0,0)"/>
<path d="" fill="#F9F9F9" transform="translate(0,0)"/>
<path d="" fill="#FBFCFC" transform="translate(0,0)"/>
<path d="" fill="#F9F9F9" transform="translate(0,0)"/>
<path d="" fill="#F8F8F8" transform="translate(0,0)"/>
<path d="" fill="#FAFAFA" transform="translate(0,0)"/>
<path d="" fill="#F0F0F0" transform="translate(0,0)"/>
<path d="" fill="#FCFCFC" transform="translate(0,0)"/>
<path d="" fill="#F8F8F9" transform="translate(0,0)"/>
<path d="" fill="#E0E0E1" transform="translate(0,0)"/>
<path d="" fill="#F7F8F7" transform="translate(0,0)"/>
<path d="" fill="#FBFBFB" transform="translate(0,0)"/>
<path d="" fill="#DFDFDF" transform="translate(0,0)"/>
<path d="" fill="#FBFBFB" transform="translate(0,0)"/>
<path d="" fill="#EAEBEB" transform="translate(0,0)"/>
<path d="" fill="#F8F9F8" transform="translate(0,0)"/>
<path d="" fill="#EFEFEF" transform="translate(0,0)"/>
<path d="" fill="#FAFAFA" transform="translate(0,0)"/>
<path d="" fill="#FAFAFA" transform="translate(0,0)"/>
<path d="" fill="#EEEEEE" transform="translate(0,0)"/>
<path d="" fill="#FDFDFD" transform="translate(0,0)"/>
<path d="" fill="#EFEFEF" transform="translate(0,0)"/>
<path d="" fill="#EBECEC" transform="translate(0,0)"/>
<path d="" fill="#FBFBFB" transform="translate(0,0)"/>
<path d="" fill="#FAFAFA" transform="translate(0,0)"/>
<path d="" fill="#FBFBFB" transform="translate(0,0)"/>
<path d="" fill="#FAFAFB" transform="translate(0,0)"/>
<path d="" fill="#FAFBFA" transform="translate(0,0)"/>
<path d="" fill="#F0F0F0" transform="translate(0,0)"/>
<path d="" fill="#E9EAEA" transform="translate(0,0)"/>
<path d="" fill="#EFEFEF" transform="translate(0,0)"/>
<path d="" fill="#F8F8F8" transform="translate(0,0)"/>
<path d="" fill="#FAFAFA" transform="translate(0,0)"/>
<path d="" fill="#EAEAEA" transform="translate(0,0)"/>
</svg>
